<?xml version="1.0" encoding="UTF-8" standalone="no"?>
<!-- Created with Inkscape (http://www.inkscape.org/) -->

<svg
   xmlns:dc="http://purl.org/dc/elements/1.1/"
   xmlns:cc="http://creativecommons.org/ns#"
   xmlns:rdf="http://www.w3.org/1999/02/22-rdf-syntax-ns#"
   xmlns:svg="http://www.w3.org/2000/svg"
   xmlns="http://www.w3.org/2000/svg"
   xmlns:sodipodi="http://sodipodi.sourceforge.net/DTD/sodipodi-0.dtd"
   xmlns:inkscape="http://www.inkscape.org/namespaces/inkscape"
   width="744.09448819"
   height="1052.3622047"
   id="svg2"
   version="1.1"
   inkscape:version="0.47 r22583"
   sodipodi:docname="diagram.svg">
  <defs
     id="defs4"><marker
   inkscape:stockid="Arrow1Mend"
   orient="auto"
   refY="0.0"
   refX="0.0"
   id="Arrow1Mend"
   style="overflow:visible;">
  <path
     id="path3959"
     d="M 0.0,0.0 L 5.0,-5.0 L -12.5,0.0 L 5.0,5.0 L 0.0,0.0 z "
     style="fill-rule:evenodd;stroke:#000000;stroke-width:1.0pt;marker-start:none;"
     transform="scale(0.4) rotate(180) translate(10,0)" />
</marker>
<marker
   inkscape:stockid="Arrow2Lend"
   orient="auto"
   refY="0.0"
   refX="0.0"
   id="Arrow2Lend"
   style="overflow:visible;">
  <path
     id="path3971"
     style="font-size:12.0;fill-rule:evenodd;stroke-width:0.62500000;stroke-linejoin:round;"
     d="M 8.7185878,4.0337352 L -2.2072895,0.016013256 L 8.7185884,-4.0017078 C 6.9730900,-1.6296469 6.9831476,1.6157441 8.7185878,4.0337352 z "
     transform="scale(1.1) rotate(180) translate(1,0)" />
</marker>
<marker
   inkscape:stockid="Arrow1Lend"
   orient="auto"
   refY="0.0"
   refX="0.0"
   id="Arrow1Lend"
   style="overflow:visible;">
  <path
     id="path3953"
     d="M 0.0,0.0 L 5.0,-5.0 L -12.5,0.0 L 5.0,5.0 L 0.0,0.0 z "
     style="fill-rule:evenodd;stroke:#000000;stroke-width:1.0pt;marker-start:none;"
     transform="scale(0.8) rotate(180) translate(12.5,0)" />
</marker>
<inkscape:perspective
   sodipodi:type="inkscape:persp3d"
   inkscape:vp_x="0 : 526.18109 : 1"
   inkscape:vp_y="0 : 1000 : 0"
   inkscape:vp_z="744.09448 : 526.18109 : 1"
   inkscape:persp3d-origin="372.04724 : 350.78739 : 1"
   id="perspective10" />
<inkscape:perspective
   id="perspective2858"
   inkscape:persp3d-origin="0.5 : 0.33333333 : 1"
   inkscape:vp_z="1 : 0.5 : 1"
   inkscape:vp_y="0 : 1000 : 0"
   inkscape:vp_x="0 : 0.5 : 1"
   sodipodi:type="inkscape:persp3d" />
<inkscape:perspective
   id="perspective2880"
   inkscape:persp3d-origin="0.5 : 0.33333333 : 1"
   inkscape:vp_z="1 : 0.5 : 1"
   inkscape:vp_y="0 : 1000 : 0"
   inkscape:vp_x="0 : 0.5 : 1"
   sodipodi:type="inkscape:persp3d" />
<inkscape:perspective
   id="perspective3898"
   inkscape:persp3d-origin="0.5 : 0.33333333 : 1"
   inkscape:vp_z="1 : 0.5 : 1"
   inkscape:vp_y="0 : 1000 : 0"
   inkscape:vp_x="0 : 0.5 : 1"
   sodipodi:type="inkscape:persp3d" />
<inkscape:perspective
   id="perspective5461"
   inkscape:persp3d-origin="360 : 240 : 1"
   inkscape:vp_z="720 : 360 : 1"
   inkscape:vp_y="0 : 1000 : 0"
   inkscape:vp_x="0 : 360 : 1"
   sodipodi:type="inkscape:persp3d" />























</defs>
  <sodipodi:namedview
     id="base"
     pagecolor="#ffffff"
     bordercolor="#666666"
     borderopacity="1.0"
     inkscape:pageopacity="0.0"
     inkscape:pageshadow="2"
     inkscape:zoom="2.3654989"
     inkscape:cx="310.77934"
     inkscape:cy="854.52093"
     inkscape:document-units="px"
     inkscape:current-layer="layer1"
     showgrid="true"
     showguides="true"
     inkscape:guide-bbox="true"
     inkscape:window-width="1543"
     inkscape:window-height="1074"
     inkscape:window-x="0"
     inkscape:window-y="29"
     inkscape:window-maximized="0">
    <inkscape:grid
       type="xygrid"
       id="grid2816"
       empspacing="5"
       visible="true"
       enabled="true"
       snapvisiblegridlinesonly="true" />
    <sodipodi:guide
       orientation="1,0"
       position="290,805"
       id="guide3881" />
    <sodipodi:guide
       orientation="0,1"
       position="295,785"
       id="guide3883" />
  </sodipodi:namedview>
  <metadata
     id="metadata7">
    <rdf:RDF>
      <cc:Work
         rdf:about="">
        <dc:format>image/svg+xml</dc:format>
        <dc:type
           rdf:resource="http://purl.org/dc/dcmitype/StillImage" />
        <dc:title></dc:title>
      </cc:Work>
    </rdf:RDF>
  </metadata>
  <g
     inkscape:label="Layer 1"
     inkscape:groupmode="layer"
     id="layer1">
    <path
       style="fill:none;stroke:#000000;stroke-width:1px;stroke-linecap:butt;stroke-linejoin:miter;stroke-opacity:1"
       d="m 250,202.36218 100,0 0,100 -100,0 0,-100 z"
       id="path2818" />
    <path
       style="fill:none;stroke:#000000;stroke-width:1px;stroke-linecap:butt;stroke-linejoin:miter;stroke-opacity:1"
       d="m 325,227.36218 0,100 -100,0 0,-100 100,0 z"
       id="path2820" />
    <path
       style="fill:none;stroke:#000000;stroke-width:1px;stroke-linecap:butt;stroke-linejoin:miter;stroke-opacity:1"
       d="M 224.8997,227.16628 250,202.36218"
       id="path2822" />
    <path
       style="fill:none;stroke:#000000;stroke-width:1px;stroke-linecap:butt;stroke-linejoin:miter;stroke-opacity:1"
       d="m 325,227.36218 25,-25"
       id="path2824"
       sodipodi:nodetypes="cc" />
    <path
       style="fill:none;stroke:#000000;stroke-width:1px;stroke-linecap:butt;stroke-linejoin:miter;stroke-opacity:1"
       d="m 325,327.36218 25,-25"
       id="path2826" />
    <path
       style="fill:none;stroke:#000000;stroke-width:1px;stroke-linecap:butt;stroke-linejoin:miter;stroke-opacity:1"
       d="M 225.53382,327.14519 250,302.36218"
       id="path2828" />
    <path
       sodipodi:type="arc"
       style="fill:#000000;fill-opacity:1;stroke:none"
       id="path3888"
       sodipodi:cx="290"
       sodipodi:cy="267.36218"
       sodipodi:rx="5"
       sodipodi:ry="5"
       d="m 295,267.36218 a 5,5 0 1 1 -10,0 5,5 0 1 1 10,0 z"
       transform="matrix(0.5,0,0,0.5,145,133.68109)" />
    <path
       sodipodi:type="arc"
       style="fill:#000000;fill-opacity:1;stroke:none"
       id="path3927"
       sodipodi:cx="290"
       sodipodi:cy="267.36218"
       sodipodi:rx="5"
       sodipodi:ry="5"
       d="m 295,267.36218 a 5,5 0 1 1 -10,0 5,5 0 1 1 10,0 z"
       transform="matrix(0.5,0,0,0.5,105,69.181091)" />
    <path
       transform="matrix(0.5,0,0,0.5,205.07726,68.681091)"
       d="m 295,267.36218 a 5,5 0 1 1 -10,0 5,5 0 1 1 10,0 z"
       sodipodi:ry="5"
       sodipodi:rx="5"
       sodipodi:cy="267.36218"
       sodipodi:cx="290"
       id="path3929"
       style="fill:#000000;fill-opacity:1;stroke:none;marker-end:none;stroke-width:2;stroke-miterlimit:4;stroke-dasharray:2,2;stroke-dashoffset:0"
       sodipodi:type="arc" />
    <path
       sodipodi:type="arc"
       style="fill:#000000;fill-opacity:1;stroke:none"
       id="path3931"
       sodipodi:cx="290"
       sodipodi:cy="267.36218"
       sodipodi:rx="5"
       sodipodi:ry="5"
       d="m 295,267.36218 a 5,5 0 1 1 -10,0 5,5 0 1 1 10,0 z"
       transform="matrix(0.5,0,0,0.5,205.07726,168.68109)" />
    <path
       transform="matrix(0.5,0,0,0.5,105.07726,168.68109)"
       d="m 295,267.36218 a 5,5 0 1 1 -10,0 5,5 0 1 1 10,0 z"
       sodipodi:ry="5"
       sodipodi:rx="5"
       sodipodi:cy="267.36218"
       sodipodi:cx="290"
       id="path3933"
       style="fill:#000000;fill-opacity:1;stroke:none"
       sodipodi:type="arc" />
    <path
       transform="matrix(0.5,0,0,0.5,80.154512,93.181091)"
       d="m 295,267.36218 a 5,5 0 1 1 -10,0 5,5 0 1 1 10,0 z"
       sodipodi:ry="5"
       sodipodi:rx="5"
       sodipodi:cy="267.36218"
       sodipodi:cx="290"
       id="path3935"
       style="fill:#000000;fill-opacity:1;stroke:none"
       sodipodi:type="arc" />
    <path
       sodipodi:type="arc"
       style="fill:#000000;fill-opacity:1;stroke:none"
       id="path3937"
       sodipodi:cx="290"
       sodipodi:cy="267.36218"
       sodipodi:rx="5"
       sodipodi:ry="5"
       d="m 295,267.36218 a 5,5 0 1 1 -10,0 5,5 0 1 1 10,0 z"
       transform="matrix(0.5,0,0,0.5,180.23178,92.681091)" />
    <path
       transform="matrix(0.5,0,0,0.5,180.23178,192.68109)"
       d="m 295,267.36218 a 5,5 0 1 1 -10,0 5,5 0 1 1 10,0 z"
       sodipodi:ry="5"
       sodipodi:rx="5"
       sodipodi:cy="267.36218"
       sodipodi:cx="290"
       id="path3939"
       style="fill:#000000;fill-opacity:1;stroke:none"
       sodipodi:type="arc" />
    <path
       sodipodi:type="arc"
       style="fill:#000000;fill-opacity:1;stroke:none"
       id="path3941"
       sodipodi:cx="290"
       sodipodi:cy="267.36218"
       sodipodi:rx="5"
       sodipodi:ry="5"
       d="m 295,267.36218 a 5,5 0 1 1 -10,0 5,5 0 1 1 10,0 z"
       transform="matrix(0.5,0,0,0.5,80.231772,192.68109)" />
    <path
       style="fill:none;stroke:#000000;stroke-width:1px;stroke-linecap:butt;stroke-linejoin:miter;stroke-opacity:1;marker-end:url(#Arrow1Mend)"
       d="m 381,327.36218 25,0"
       id="path3943"
       sodipodi:nodetypes="cc" />
    <path
       style="fill:none;stroke:#000000;stroke-width:1px;stroke-linecap:butt;stroke-linejoin:miter;stroke-opacity:1;marker-end:url(#Arrow1Mend)"
       d="m 381,327.36218 15,-15"
       id="path3945" />
    <path
       style="fill:none;stroke:#000000;stroke-width:1px;stroke-linecap:butt;stroke-linejoin:miter;stroke-opacity:1;marker-end:url(#Arrow1Mend)"
       d="m 381.19572,327.36218 0,-25.00285"
       id="path4583" />
    <path
       sodipodi:nodetypes="cc"
       id="path4963"
       d="m 350,202.36218 15,0"
       style="fill:none;stroke:#000000;stroke-width:1;stroke-linecap:butt;stroke-linejoin:miter;stroke-opacity:1;marker-end:none;stroke-miterlimit:4;stroke-dasharray:1,1;stroke-dashoffset:0" />
    <path
       id="path4965"
       d="m 350,202.36218 10,-10"
       style="fill:none;stroke:#000000;stroke-width:1;stroke-linecap:butt;stroke-linejoin:miter;stroke-opacity:1;marker-end:none;stroke-miterlimit:4;stroke-dasharray:1,1;stroke-dashoffset:0"
       sodipodi:nodetypes="cc" />
    <path
       id="path4967"
       d="m 350.19572,202.36218 -0.19572,-15"
       style="fill:none;stroke:#000000;stroke-width:1;stroke-linecap:butt;stroke-linejoin:miter;stroke-opacity:1;marker-end:none;stroke-miterlimit:4;stroke-dasharray:1,1;stroke-dashoffset:0"
       sodipodi:nodetypes="cc" />
    <path
       style="fill:none;stroke:#000000;stroke-width:1.04878557;stroke-linecap:butt;stroke-linejoin:miter;stroke-miterlimit:4;stroke-opacity:1;stroke-dasharray:1.04878551, 1.04878551;stroke-dashoffset:0;marker-end:none"
       d="m 350,302.36218 15,0"
       id="path5165"
       sodipodi:nodetypes="cc" />
    <path
       style="fill:none;stroke:#000000;stroke-width:1.16069615;stroke-linecap:butt;stroke-linejoin:miter;stroke-miterlimit:4;stroke-opacity:1;stroke-dasharray:1.16069607, 1.16069607;stroke-dashoffset:0;marker-end:none"
       d="M 349.39018,301.6304 360,292.36218"
       id="path5167"
       sodipodi:nodetypes="cc" />
    <path
       style="fill:none;stroke:#000000;stroke-width:0.93253881;stroke-linecap:butt;stroke-linejoin:miter;stroke-miterlimit:4;stroke-opacity:1;stroke-dasharray:0.93253873, 0.93253873;stroke-dashoffset:0;marker-end:none"
       d="m 350,302.36218 0,15"
       id="path5169"
       sodipodi:nodetypes="cc" />
    <path
       style="fill:none;stroke:#000000;stroke-width:1.00113976;stroke-linecap:butt;stroke-linejoin:miter;stroke-miterlimit:4;stroke-opacity:1;stroke-dasharray:1.00113975, 1.00113975;stroke-dashoffset:0;marker-end:none"
       d="m 250.05702,202.36218 -15.05702,0"
       id="path5177"
       sodipodi:nodetypes="cc" />
    <path
       style="fill:none;stroke:#000000;stroke-width:0.99809754;stroke-linecap:butt;stroke-linejoin:miter;stroke-miterlimit:4;stroke-opacity:1;stroke-dasharray:0.99809752, 0.99809752;stroke-dashoffset:0;marker-end:none"
       d="m 250.05702,202.36218 9.94298,-10"
       id="path5179"
       sodipodi:nodetypes="cc" />
    <path
       style="fill:none;stroke:#000000;stroke-width:1;stroke-linecap:butt;stroke-linejoin:miter;stroke-miterlimit:4;stroke-opacity:1;stroke-dasharray:1, 1;stroke-dashoffset:0;marker-end:none"
       d="m 250.25274,202.36218 -0.25274,-15"
       id="path5181"
       sodipodi:nodetypes="cc" />
    <path
       style="fill:none;stroke:#000000;stroke-width:1;stroke-linecap:butt;stroke-linejoin:miter;stroke-miterlimit:4;stroke-opacity:1;stroke-dasharray:1, 1;stroke-dashoffset:0;marker-end:none"
       d="m 325,227.36218 15,0"
       id="path5183"
       sodipodi:nodetypes="cc" />
    <path
       style="fill:none;stroke:#000000;stroke-width:1.00000012;stroke-linecap:butt;stroke-linejoin:miter;stroke-miterlimit:4;stroke-opacity:1;stroke-dasharray:1.00000009, 1.00000009;stroke-dashoffset:0;marker-end:none"
       d="m 325,227.36218 -10,10"
       id="path5185"
       sodipodi:nodetypes="cc" />
    <path
       style="fill:none;stroke:#000000;stroke-width:1;stroke-linecap:butt;stroke-linejoin:miter;stroke-miterlimit:4;stroke-opacity:1;stroke-dasharray:1, 1;stroke-dashoffset:0;marker-end:none"
       d="m 325.19572,227.36218 -0.19572,-15"
       id="path5187"
       sodipodi:nodetypes="cc" />
    <path
       sodipodi:nodetypes="cc"
       id="path5189"
       d="m 250,302.36218 -15,0"
       style="fill:none;stroke:#000000;stroke-width:1.04878557;stroke-linecap:butt;stroke-linejoin:miter;stroke-miterlimit:4;stroke-opacity:1;stroke-dasharray:1.04878551, 1.04878551;stroke-dashoffset:0;marker-end:none" />
    <path
       sodipodi:nodetypes="cc"
       id="path5191"
       d="M 249.39018,301.6304 260,292.36218"
       style="fill:none;stroke:#000000;stroke-width:1.16069615;stroke-linecap:butt;stroke-linejoin:miter;stroke-miterlimit:4;stroke-opacity:1;stroke-dasharray:1.16069607, 1.16069607;stroke-dashoffset:0;marker-end:none" />
    <path
       sodipodi:nodetypes="cc"
       id="path5193"
       d="m 250,302.36218 0,15"
       style="fill:none;stroke:#000000;stroke-width:0.93253881;stroke-linecap:butt;stroke-linejoin:miter;stroke-miterlimit:4;stroke-opacity:1;stroke-dasharray:0.93253873, 0.93253873;stroke-dashoffset:0;marker-end:none" />
    <path
       sodipodi:nodetypes="cc"
       id="path5197"
       d="m 326,326.36218 14,0"
       style="fill:none;stroke:#000000;stroke-width:1.04878557;stroke-linecap:butt;stroke-linejoin:miter;stroke-miterlimit:4;stroke-opacity:1;stroke-dasharray:1.04878551, 1.04878551;stroke-dashoffset:0;marker-end:none" />
    <path
       sodipodi:nodetypes="cc"
       id="path5199"
       d="m 325,326.36218 -10,11"
       style="fill:none;stroke:#000000;stroke-width:1.16069615;stroke-linecap:butt;stroke-linejoin:miter;stroke-miterlimit:4;stroke-opacity:1;stroke-dasharray:1.16069607, 1.16069607;stroke-dashoffset:0;marker-end:none" />
    <path
       sodipodi:nodetypes="cc"
       id="path5201"
       d="m 325,326.36218 0,16"
       style="fill:none;stroke:#000000;stroke-width:0.93253881;stroke-linecap:butt;stroke-linejoin:miter;stroke-miterlimit:4;stroke-opacity:1;stroke-dasharray:0.93253873, 0.93253873;stroke-dashoffset:0;marker-end:none" />
    <path
       style="fill:none;stroke:#000000;stroke-width:1.04878557;stroke-linecap:butt;stroke-linejoin:miter;stroke-miterlimit:4;stroke-opacity:1;stroke-dasharray:1.04878551, 1.04878551;stroke-dashoffset:0;marker-end:none"
       d="m 225.10321,326.36218 -15.10321,0"
       id="path5203"
       sodipodi:nodetypes="cc" />
    <path
       style="fill:none;stroke:#000000;stroke-width:1.16069615;stroke-linecap:butt;stroke-linejoin:miter;stroke-miterlimit:4;stroke-opacity:1;stroke-dasharray:1.16069607, 1.16069607;stroke-dashoffset:0;marker-end:none"
       d="m 224.10321,326.36218 -10,11"
       id="path5205"
       sodipodi:nodetypes="cc" />
    <path
       style="fill:none;stroke:#000000;stroke-width:0.93253881;stroke-linecap:butt;stroke-linejoin:miter;stroke-miterlimit:4;stroke-opacity:1;stroke-dasharray:0.93253873, 0.93253873;stroke-dashoffset:0;marker-end:none"
       d="m 224.10321,326.36218 0,16"
       id="path5207"
       sodipodi:nodetypes="cc" />
    <path
       sodipodi:nodetypes="cc"
       id="path5209"
       d="m 225.10321,226.66111 -15.10321,0"
       style="fill:none;stroke:#000000;stroke-width:1.04878557;stroke-linecap:butt;stroke-linejoin:miter;stroke-miterlimit:4;stroke-opacity:1;stroke-dasharray:1.04878551, 1.04878551;stroke-dashoffset:0;marker-end:none" />
    <path
       sodipodi:nodetypes="cc"
       id="path5211"
       d="m 224.10321,226.66111 -10,11"
       style="fill:none;stroke:#000000;stroke-width:1.16069615;stroke-linecap:butt;stroke-linejoin:miter;stroke-miterlimit:4;stroke-opacity:1;stroke-dasharray:1.16069607, 1.16069607;stroke-dashoffset:0;marker-end:none" />
    <path
       sodipodi:nodetypes="cc"
       id="path5213"
       d="m 225.19584,226.25649 -0.25274,-15"
       style="fill:none;stroke:#000000;stroke-width:1;stroke-linecap:butt;stroke-linejoin:miter;stroke-miterlimit:4;stroke-opacity:1;stroke-dasharray:1, 1;stroke-dashoffset:0;marker-end:none" />
    <g
       id="g5640"
       transform="translate(55.05717,358.89327)">
      <path
         style="font-style:normal;font-variant:normal;font-weight:normal;font-stretch:normal;letter-spacing:normal;word-spacing:normal;text-anchor:start;fill:#000000;stroke:#000000;stroke-width:0;stroke-linecap:butt;stroke-linejoin:miter;stroke-miterlimit:10.43299961;stroke-opacity:1;stroke-dasharray:none;stroke-dashoffset:0"
         d="m 244.20534,-89.193605 0,-0.574997 -0.8625,0 0,-2.324985 c 0.5375,0.437497 1.0875,0.562497 1.59999,0.562497 l -0.1375,-0.449998 c -0.175,0 -0.76249,0 -1.32499,-0.674995 -0.1375,-0.162499 -0.1375,-0.174999 -0.1375,-0.399998 l 0,-2.649983 c 0,-0.237498 0.0125,-0.249998 0.1875,-0.424997 0.5,-0.499997 1.14999,-0.587496 1.42499,-0.587496 0.825,0 1.52499,0.762495 1.52499,2.337485 0,1.749989 -0.87499,2.399984 -1.67499,2.399984 l 0.1375,0.449998 c 1.86249,0 3.13748,-1.124993 3.13748,-2.849982 0,-1.66249 -1.13749,-2.824982 -2.92498,-2.824982 -0.93749,0 -1.59999,0.374997 -1.88749,0.599996 l 0,-0.599996 -2.19998,0.1 0,0.587496 c 0.76249,0 0.84999,0 0.84999,0.462497 l 0,6.28746 -0.84999,0 0,0.574997 c 0.34999,-0.0125 1.09999,-0.0375 1.56249,-0.0375 0.48749,0 1.22499,0.025 1.57499,0.0375 z"
         id="path5411" />
      <path
         style="font-style:normal;font-variant:normal;font-weight:normal;font-stretch:normal;letter-spacing:normal;word-spacing:normal;text-anchor:start;fill:#000000;stroke:#000000;stroke-width:0;stroke-linecap:butt;stroke-linejoin:miter;stroke-miterlimit:10.43299961;stroke-opacity:1;stroke-dasharray:none;stroke-dashoffset:0"
         d="m 254.01777,-91.356092 0,0 0,-0.0125 0,0 0,-0.0125 0,0 0,-0.0125 0,0 -0.0125,-0.0125 0,0 0,-0.0125 0,0 0,0 0,-0.0125 -0.0125,0 0,-0.0125 0,0 0,-0.0125 -0.0125,0 -0.0125,-0.0125 0,0 -0.0125,-0.0125 -0.0125,0 0,0 -0.0125,-0.0125 -0.0125,0 -0.0125,0 -0.0125,0 -0.0125,-0.0125 0,0 -0.0125,0 -0.0125,0 -0.0125,0 -0.0125,0 -0.0125,0 -0.025,0 -0.025,0 -0.025,0 c -0.2,0 -0.225,0.0125 -0.275,0.137499 -0.1375,0.287499 -0.4125,0.624996 -1.0875,0.624996 -1.39999,0 -1.39999,-1.224992 -1.39999,-1.574989 0,-0.662496 0.1,-1.537491 1.275,-1.537491 0.05,0 0.53749,0 0.53749,0.0375 0,0.025 0,0.025 -0.0125,0.0375 -0.0125,0.025 -0.1,0.162499 -0.1,0.349998 0,0.349997 0.275,0.599996 0.6,0.599996 0.3625,0 0.61249,-0.249999 0.61249,-0.612496 0,-0.837495 -1.16249,-0.862495 -1.67498,-0.862495 -1.93749,0 -2.44999,1.199993 -2.44999,2.012487 0,1.024994 0.75,1.987488 2.39999,1.987488 0.42499,0 0.87499,-0.075 1.22499,-0.274999 0.4875,-0.287498 0.62499,-0.712495 0.62499,-0.774995 z"
         id="path5413" />
    </g>
    <g
       id="g5644"
       transform="translate(-13.30534,406.46842)">
      <path
         style="font-style:normal;font-variant:normal;font-weight:normal;font-stretch:normal;letter-spacing:normal;word-spacing:normal;text-anchor:start;fill:#000000;stroke:#000000;stroke-width:0;stroke-linecap:butt;stroke-linejoin:miter;stroke-miterlimit:10.43299961;stroke-opacity:1;stroke-dasharray:none;stroke-dashoffset:0"
         d="m 244.91783,-72.168714 1.44999,-1.62499 c 0.1625,-0.174999 0.2375,-0.262498 1.27499,-0.262498 l 0,-0.574997 c -0.43749,0.025 -1.08749,0.025 -1.14999,0.025 -0.3125,0 -0.93749,-0.0125 -1.27499,-0.025 l 0,0.574997 c 0.1625,0 0.325,0.0375 0.475,0.112499 -0.0625,0.0875 -0.0625,0.112499 -0.1125,0.149999 l -1.0375,1.174992 -1.22499,-1.43749 0.5,0 0,-0.574997 c -0.325,0.0125 -1.11249,0.025 -1.51249,0.025 -0.3875,0 -0.94999,-0.0125 -1.36249,-0.025 l 0,0.574997 0.88749,0 1.93749,2.299985 -1.62499,1.824988 c -0.225,0.237499 -0.6625,0.237499 -1.26249,0.237499 l 0,0.587496 c 0.4375,-0.025 1.08749,-0.0375 1.14999,-0.0375 0.3125,0 1.02499,0.025 1.27499,0.0375 l 0,-0.587496 c -0.225,0 -0.46249,-0.0625 -0.46249,-0.137499 0,-0.0125 0,-0.025 0.0875,-0.125 l 1.21249,-1.349991 1.37499,1.61249 -0.4875,0 0,0.587496 c 0.325,-0.0125 1.07499,-0.0375 1.48749,-0.0375 0.4,0 0.9625,0.025 1.37499,0.0375 l 0,-0.587496 -0.88749,0 z"
         id="path5415" />
      <path
         style="font-style:normal;font-variant:normal;font-weight:normal;font-stretch:normal;letter-spacing:normal;word-spacing:normal;text-anchor:start;fill:#000000;stroke:#000000;stroke-width:0;stroke-linecap:butt;stroke-linejoin:miter;stroke-miterlimit:10.43299961;stroke-opacity:1;stroke-dasharray:none;stroke-dashoffset:0"
         d="m 251.58029,-73.268707 0,-0.0125 0,-0.0125 0,-0.0125 0,-0.0125 0,-0.0125 0,-0.0125 0,-0.0125 0,-0.0125 0,-0.0125 0,-0.0125 0,-0.0125 -0.0125,0 0,-0.0125 0,-0.0125 0,-0.0125 0,-0.0125 -0.0125,-0.025 0,-0.0125 -0.0125,0 -0.0125,-0.0125 0,-0.0125 -0.0125,-0.0125 -0.0125,0 -0.0125,-0.0125 -0.0125,0 -0.0125,-0.0125 -0.0125,0 -0.025,0 -0.0125,-0.0125 -0.025,0 -0.0125,0 -0.025,0 -0.025,0 -0.0125,0 -0.0125,0 -0.0125,0 -0.0125,0 -0.0125,0 -0.0125,0 -0.0125,0 -0.025,0 -0.0125,0 -0.0125,0 -0.025,0 -0.0125,0 c -0.53749,0.424997 -1.24999,0.549996 -1.94999,0.549996 l -0.21249,0 0,0.487497 0.21249,0 c 0.35,0 0.875,-0.05 1.25,-0.174999 l 0,4.362472 -1.38749,0 0,0.487497 c 0.43749,-0.0375 1.47499,-0.0375 1.94998,-0.0375 0.3125,0 0.625,0.0125 0.9375,0.0125 0.2625,0 0.71249,0 0.97499,0.025 l 0,-0.487497 -1.34999,0 z"
         id="path5417" />
    </g>
    <g
       id="g5648"
       transform="translate(86.96967,382.96856)">
      <path
         style="font-style:normal;font-variant:normal;font-weight:normal;font-stretch:normal;letter-spacing:normal;word-spacing:normal;text-anchor:start;fill:#000000;stroke:#000000;stroke-width:0;stroke-linecap:butt;stroke-linejoin:miter;stroke-miterlimit:10.43299961;stroke-opacity:1;stroke-dasharray:none;stroke-dashoffset:0"
         d="m 244.91783,-49.668858 1.44999,-1.62499 c 0.1625,-0.174999 0.2375,-0.262498 1.27499,-0.262498 l 0,-0.574997 c -0.43749,0.025 -1.08749,0.025 -1.14999,0.025 -0.3125,0 -0.93749,-0.0125 -1.27499,-0.025 l 0,0.574997 c 0.1625,0 0.325,0.0375 0.475,0.112499 -0.0625,0.0875 -0.0625,0.112499 -0.1125,0.149999 l -1.0375,1.174992 -1.22499,-1.43749 0.5,0 0,-0.574997 c -0.325,0.0125 -1.11249,0.025 -1.51249,0.025 -0.3875,0 -0.94999,-0.0125 -1.36249,-0.025 l 0,0.574997 0.88749,0 1.93749,2.299985 -1.62499,1.824988 c -0.225,0.237499 -0.6625,0.237499 -1.26249,0.237499 l 0,0.587496 c 0.4375,-0.025 1.08749,-0.0375 1.14999,-0.0375 0.3125,0 1.02499,0.025 1.27499,0.0375 l 0,-0.587496 c -0.225,0 -0.46249,-0.0625 -0.46249,-0.137499 0,-0.0125 0,-0.025 0.0875,-0.125 l 1.21249,-1.349991 1.37499,1.61249 -0.4875,0 0,0.587496 c 0.325,-0.0125 1.07499,-0.0375 1.48749,-0.0375 0.4,0 0.9625,0.025 1.37499,0.0375 l 0,-0.587496 -0.88749,0 z"
         id="path5419" />
      <path
         style="font-style:normal;font-variant:normal;font-weight:normal;font-stretch:normal;letter-spacing:normal;word-spacing:normal;text-anchor:start;fill:#000000;stroke:#000000;stroke-width:0;stroke-linecap:butt;stroke-linejoin:miter;stroke-miterlimit:10.43299961;stroke-opacity:1;stroke-dasharray:none;stroke-dashoffset:0"
         d="m 253.14278,-47.343873 -0.55,0 c -0.0125,0.1 -0.0875,0.724995 -0.25,0.762495 -0.18749,0.025 -0.71249,0.025 -0.91249,0.025 l -1.18749,0 c 0.475,-0.349998 0.96249,-0.712496 1.47499,-1.024994 0.69999,-0.462497 1.42499,-0.924994 1.42499,-1.799988 0,-1.037494 -0.98749,-1.687489 -2.37499,-1.687489 -1.17499,0 -2.07498,0.449997 -2.07498,1.287491 0,0.499997 0.4125,0.687496 0.67499,0.687496 0.3125,0 0.675,-0.224999 0.675,-0.674996 0,-0.424997 -0.3125,-0.599996 -0.3375,-0.612496 0.3125,-0.199999 0.7125,-0.199999 0.8125,-0.199999 0.73749,0 1.32499,0.462497 1.32499,1.212493 0,0.674995 -0.45,1.224992 -0.95,1.674989 l -2.07498,1.837488 c -0.1125,0.112499 -0.125,0.112499 -0.125,0.287498 l 0,0.212499 4.14997,0 z"
         id="path5421" />
    </g>
    <g
       id="g5652"
       transform="translate(12.99468,335.0562)">
      <path
         style="font-style:normal;font-variant:normal;font-weight:normal;font-stretch:normal;letter-spacing:normal;word-spacing:normal;text-anchor:start;fill:#000000;stroke:#000000;stroke-width:0;stroke-linecap:butt;stroke-linejoin:miter;stroke-miterlimit:10.43299961;stroke-opacity:1;stroke-dasharray:none;stroke-dashoffset:0"
         d="m 244.91783,-27.169002 1.44999,-1.62499 c 0.1625,-0.174999 0.2375,-0.262498 1.27499,-0.262498 l 0,-0.574997 c -0.43749,0.025 -1.08749,0.025 -1.14999,0.025 -0.3125,0 -0.93749,-0.0125 -1.27499,-0.025 l 0,0.574997 c 0.1625,0 0.325,0.0375 0.475,0.112499 -0.0625,0.0875 -0.0625,0.112499 -0.1125,0.149999 l -1.0375,1.174992 -1.22499,-1.43749 0.5,0 0,-0.574997 c -0.325,0.0125 -1.11249,0.025 -1.51249,0.025 -0.3875,0 -0.94999,-0.0125 -1.36249,-0.025 l 0,0.574997 0.88749,0 1.93749,2.299985 -1.62499,1.824988 c -0.225,0.237499 -0.6625,0.237499 -1.26249,0.237499 l 0,0.587496 c 0.4375,-0.025 1.08749,-0.0375 1.14999,-0.0375 0.3125,0 1.02499,0.025 1.27499,0.0375 l 0,-0.587496 c -0.225,0 -0.46249,-0.0625 -0.46249,-0.137499 0,-0.0125 0,-0.025 0.0875,-0.125 l 1.21249,-1.349991 1.37499,1.61249 -0.4875,0 0,0.587496 c 0.325,-0.0125 1.07499,-0.0375 1.48749,-0.0375 0.4,0 0.9625,0.025 1.37499,0.0375 l 0,-0.587496 -0.88749,0 z"
         id="path5423" />
      <path
         style="font-style:normal;font-variant:normal;font-weight:normal;font-stretch:normal;letter-spacing:normal;word-spacing:normal;text-anchor:start;fill:#000000;stroke:#000000;stroke-width:0;stroke-linecap:butt;stroke-linejoin:miter;stroke-miterlimit:10.43299961;stroke-opacity:1;stroke-dasharray:none;stroke-dashoffset:0"
         d="m 250.7428,-25.694012 0.0375,0 0.05,0.0125 0.05,0 0.0375,0 0.05,0.0125 0.0375,0 0.0375,0.0125 0.0375,0 0.0375,0.0125 0.0375,0.0125 0.0375,0 0.025,0.0125 0.0375,0.0125 0.0375,0.0125 0.025,0.025 0.025,0.0125 0.025,0.0125 0.0375,0.0125 0.025,0.025 0.025,0.0125 0.0375,0.0375 0.05,0.0375 0.0375,0.0375 0.025,0.05 0.0375,0.05 0.025,0.0375 0.025,0.05 0.025,0.05 0.0125,0.05 0.025,0.05 0.0125,0.05 0.0125,0.05 0.0125,0.0625 0,0.05 0.0125,0.05 0,0.05 0.0125,0.05 0,0.05 0,0.05 0,0.05 0,0.0375 0,0.05 c 0,0.362498 0,1.249992 -1.05,1.249992 -0.22499,0 -0.77499,-0.05 -1.14999,-0.287498 0.175,-0.075 0.4125,-0.274998 0.4125,-0.649996 0,-0.399997 -0.3,-0.699995 -0.7125,-0.699995 -0.43749,0 -0.71249,0.299998 -0.71249,0.712495 0,0.887494 0.96249,1.362491 2.19998,1.362491 1.82499,0 2.43749,-0.949994 2.43749,-1.674989 0,-0.674996 -0.5375,-1.287492 -1.52499,-1.48749 0.62499,-0.237499 1.21249,-0.687496 1.21249,-1.424991 0,-0.674996 -0.69999,-1.224992 -2.09999,-1.224992 -1.18749,0 -1.91248,0.574996 -1.91248,1.299991 0,0.437497 0.31249,0.674996 0.64999,0.674996 0.4375,0 0.6625,-0.324998 0.6625,-0.662496 0,-0.437497 -0.35,-0.599996 -0.4375,-0.624996 0.3625,-0.262498 0.825,-0.287498 0.99999,-0.287498 0.85,0 0.85,0.562496 0.85,0.812495 0,0.399997 -0.175,1.187492 -1.03749,1.237492 -0.225,0.0125 -0.45,0.025 -0.4875,0.0375 -0.125,0.0375 -0.125,0.137499 -0.125,0.187498 0,0.199999 0.125,0.199999 0.2875,0.199999 z"
         id="path5425" />
    </g>
    <g
       id="g5656"
       transform="translate(112.10719,312.80634)">
      <path
         style="font-style:normal;font-variant:normal;font-weight:normal;font-stretch:normal;letter-spacing:normal;word-spacing:normal;text-anchor:start;fill:#000000;stroke:#000000;stroke-width:0;stroke-linecap:butt;stroke-linejoin:miter;stroke-miterlimit:10.43299961;stroke-opacity:1;stroke-dasharray:none;stroke-dashoffset:0"
         d="m 244.91783,-5.9191384 1.44999,-1.6249896 c 0.1625,-0.1749989 0.2375,-0.2624983 1.27499,-0.2624983 l 0,-0.5749963 c -0.43749,0.025 -1.08749,0.025 -1.14999,0.025 -0.3125,0 -0.93749,-0.0125 -1.27499,-0.025 l 0,0.5749963 c 0.1625,0 0.325,0.0375 0.475,0.1124993 -0.0625,0.087499 -0.0625,0.1124992 -0.1125,0.149999 l -1.0375,1.1749925 -1.22499,-1.4374908 0.5,0 0,-0.5749963 c -0.325,0.0125 -1.11249,0.025 -1.51249,0.025 -0.3875,0 -0.94999,-0.0125 -1.36249,-0.025 l 0,0.5749963 0.88749,0 1.93749,2.2999853 -1.62499,1.8249883 c -0.225,0.2374985 -0.6625,0.2374985 -1.26249,0.2374985 l 0,0.5874962 c 0.4375,-0.025 1.08749,-0.0375 1.14999,-0.0375 0.3125,0 1.02499,0.025 1.27499,0.0375 l 0,-0.5874962 c -0.225,0 -0.46249,-0.0625 -0.46249,-0.1374992 0,-0.0125 0,-0.025 0.0875,-0.1249992 l 1.21249,-1.3499913 1.37499,1.6124897 -0.4875,0 0,0.5874962 c 0.325,-0.0125 1.07499,-0.0375 1.48749,-0.0375 0.4,0 0.9625,0.025 1.37499,0.0375 l 0,-0.5874962 -0.88749,0 z"
         id="path5427" />
      <path
         style="font-style:normal;font-variant:normal;font-weight:normal;font-stretch:normal;letter-spacing:normal;word-spacing:normal;text-anchor:start;fill:#000000;stroke:#000000;stroke-width:0;stroke-linecap:butt;stroke-linejoin:miter;stroke-miterlimit:10.43299961;stroke-opacity:1;stroke-dasharray:none;stroke-dashoffset:0"
         d="m 253.39278,-1.6941654 0,-0.4999968 -0.9625,0 0,-3.6249768 c 0,-0.2624984 -0.0375,-0.312498 -0.29999,-0.312498 l -0.125,0 c -0.175,0 -0.2375,0 -0.35,0.1374991 l -3.19998,3.7999757 0,0.4999968 2.78748,0 0.1125,-0.4999968 -2.29998,0 2.29998,-2.7249826 0,2.7249826 -0.1125,0.4999968 0,0.84999452 -1.08749,0 0,0.48749688 c 0.4375,-0.0374998 1.21249,-0.0374998 1.67499,-0.0374998 0.1875,0 1.33749,0.0124999 1.56249,0.0374998 l 0,-0.48749688 -0.9625,0 0,-0.84999452 z"
         id="path5429" />
    </g>
    <g
       id="g5660"
       transform="translate(-11.51783,217.30648)">
      <path
         style="font-style:normal;font-variant:normal;font-weight:normal;font-stretch:normal;letter-spacing:normal;word-spacing:normal;text-anchor:start;fill:#000000;stroke:#000000;stroke-width:0;stroke-linecap:butt;stroke-linejoin:miter;stroke-miterlimit:10.43299961;stroke-opacity:1;stroke-dasharray:none;stroke-dashoffset:0"
         d="m 244.91783,16.580718 1.44999,-1.62499 c 0.1625,-0.174999 0.2375,-0.262498 1.27499,-0.262498 l 0,-0.574997 c -0.43749,0.025 -1.08749,0.025 -1.14999,0.025 -0.3125,0 -0.93749,-0.0125 -1.27499,-0.025 l 0,0.574997 c 0.1625,0 0.325,0.0375 0.475,0.112499 -0.0625,0.0875 -0.0625,0.112499 -0.1125,0.149999 l -1.0375,1.174992 -1.22499,-1.43749 0.5,0 0,-0.574997 c -0.325,0.0125 -1.11249,0.025 -1.51249,0.025 -0.3875,0 -0.94999,-0.0125 -1.36249,-0.025 l 0,0.574997 0.88749,0 1.93749,2.299985 -1.62499,1.824988 c -0.225,0.237499 -0.6625,0.237499 -1.26249,0.237499 l 0,0.587496 c 0.4375,-0.025 1.08749,-0.0375 1.14999,-0.0375 0.3125,0 1.02499,0.025 1.27499,0.0375 l 0,-0.587496 c -0.225,0 -0.46249,-0.0625 -0.46249,-0.137499 0,-0.0125 0,-0.025 0.0875,-0.125 l 1.21249,-1.349991 1.37499,1.61249 -0.4875,0 0,0.587496 c 0.325,-0.0125 1.07499,-0.0375 1.48749,-0.0375 0.4,0 0.9625,0.025 1.37499,0.0375 l 0,-0.587496 -0.88749,0 z"
         id="path5431" />
      <path
         style="font-style:normal;font-variant:normal;font-weight:normal;font-stretch:normal;letter-spacing:normal;word-spacing:normal;text-anchor:start;fill:#000000;stroke:#000000;stroke-width:0;stroke-linecap:butt;stroke-linejoin:miter;stroke-miterlimit:10.43299961;stroke-opacity:1;stroke-dasharray:none;stroke-dashoffset:0"
         d="m 249.7553,17.81821 0.025,0 0.025,0.0125 0.0375,0 0.025,0 0.025,0 0.025,0.0125 0.025,0 0.025,0 0.025,0 0.025,0 0.025,0 0.025,0.0125 0.025,0 0.025,0 0.0125,0 0.025,0 0.025,0 0.0125,0 0.025,0 0.0125,0 0.0125,0 0.025,0 0.0125,0 0.0125,0 0.025,0 0.0125,0 0.0125,0 0.0125,0 0.0125,0 0.0125,0 0.0125,0 0.0125,0 c 0.2,0 0.79999,0 1.44999,-0.374997 0.25,-0.149999 0.84999,-0.599996 0.84999,-0.849995 0,-0.0375 0,-0.199998 -0.15,-0.199998 -0.025,0 -0.0375,0 -0.1375,0.025 -0.58749,0.187499 -1.09999,0.249999 -1.49999,0.249999 -0.36249,0 -0.88749,-0.05 -1.47499,-0.237499 -0.1125,-0.0375 -0.1375,-0.0375 -0.15,-0.0375 -0.16249,0 -0.16249,0.124999 -0.16249,0.262498 l 0,2.587483 c 0,0.162499 0,0.287498 0.24999,0.287498 0.0875,0 0.15,0 0.225,-0.0625 0.1625,-0.187499 0.4875,-0.537497 1.31249,-0.537497 0.9125,0 0.9125,0.762495 0.9125,1.387491 0,0.587497 0,1.449991 -1.19999,1.449991 -0.4125,0 -0.875,-0.137499 -1.125,-0.424997 0.4375,-0.112499 0.475,-0.487497 0.475,-0.612496 0,-0.437497 -0.3375,-0.649996 -0.6375,-0.649996 -0.31249,0 -0.64999,0.212499 -0.64999,0.662496 0,0.799995 0.78749,1.46249 1.96249,1.46249 1.64999,0 2.48748,-0.862494 2.48748,-1.849988 0,-0.924994 -0.675,-1.824988 -2.17499,-1.824988 -0.33749,0 -0.79999,0.05 -1.21249,0.287498 z"
         id="path5433" />
    </g>
    <g
       id="g5664"
       transform="translate(87.1197,193.70663)">
      <path
         style="font-style:normal;font-variant:normal;font-weight:normal;font-stretch:normal;letter-spacing:normal;word-spacing:normal;text-anchor:start;fill:#000000;stroke:#000000;stroke-width:0;stroke-linecap:butt;stroke-linejoin:miter;stroke-miterlimit:10.43299961;stroke-opacity:1;stroke-dasharray:none;stroke-dashoffset:0"
         d="m 244.91783,39.080574 1.44999,-1.62499 c 0.1625,-0.174999 0.2375,-0.262498 1.27499,-0.262498 l 0,-0.574997 c -0.43749,0.025 -1.08749,0.025 -1.14999,0.025 -0.3125,0 -0.93749,-0.0125 -1.27499,-0.025 l 0,0.574997 c 0.1625,0 0.325,0.0375 0.475,0.112499 -0.0625,0.0875 -0.0625,0.112499 -0.1125,0.149999 l -1.0375,1.174992 -1.22499,-1.43749 0.5,0 0,-0.574997 c -0.325,0.0125 -1.11249,0.025 -1.51249,0.025 -0.3875,0 -0.94999,-0.0125 -1.36249,-0.025 l 0,0.574997 0.88749,0 1.93749,2.299985 -1.62499,1.824988 c -0.225,0.237499 -0.6625,0.237499 -1.26249,0.237499 l 0,0.587496 c 0.4375,-0.025 1.08749,-0.0375 1.14999,-0.0375 0.3125,0 1.02499,0.025 1.27499,0.0375 l 0,-0.587496 c -0.225,0 -0.46249,-0.0625 -0.46249,-0.137499 0,-0.0125 0,-0.025 0.0875,-0.125 l 1.21249,-1.349991 1.37499,1.61249 -0.4875,0 0,0.587496 c 0.325,-0.0125 1.07499,-0.0375 1.48749,-0.0375 0.4,0 0.9625,0.025 1.37499,0.0375 l 0,-0.587496 -0.88749,0 z"
         id="path5435" />
      <path
         style="font-style:normal;font-variant:normal;font-weight:normal;font-stretch:normal;letter-spacing:normal;word-spacing:normal;text-anchor:start;fill:#000000;stroke:#000000;stroke-width:0;stroke-linecap:butt;stroke-linejoin:miter;stroke-miterlimit:10.43299961;stroke-opacity:1;stroke-dasharray:none;stroke-dashoffset:0"
         d="m 249.8803,41.655557 0,-0.112499 0,-0.112499 0.0125,-0.1125 0,-0.124999 0.0125,-0.112499 0,-0.112499 0.0125,-0.1125 0.025,-0.112499 0.0125,-0.112499 0.0125,-0.05 0.0125,-0.05 0.0125,-0.05 0.025,-0.0625 0.0125,-0.05 0.0125,-0.05 0.025,-0.05 0.0125,-0.05 0.025,-0.0375 0.025,-0.05 0.025,-0.05 0.025,-0.0375 0.025,-0.05 0.025,-0.0375 c 0.425,-0.599996 1.11249,-0.624996 1.29999,-0.624996 0.275,0 0.5,0.075 0.625,0.174999 -0.25,0.1 -0.4125,0.324998 -0.4125,0.587496 0,0.324998 0.2375,0.599996 0.59999,0.599996 0.3625,0 0.6125,-0.237498 0.6125,-0.612496 0,-0.537496 -0.3375,-1.149992 -1.43749,-1.149992 -1.47499,0 -2.91248,0.887494 -2.91248,2.937481 0,1.174992 0.3125,2.874981 2.34998,2.874981 1.38749,0 2.28749,-0.749995 2.28749,-1.899987 0,-1.137493 -0.9,-1.862489 -2.13749,-1.862489 l -0.1,0.399998 c 0.95,0 0.95,0.662496 0.95,1.449991 0,0.812494 0,1.47499 -1.0125,1.47499 l 0,0 c -1.02499,0 -1.03749,-1.037493 -1.03749,-1.57499 0,-0.624996 0.35,-1.349991 1.09999,-1.349991 l 0.1,-0.399998 c -0.1875,0 -0.78749,0 -1.22499,0.674996 z"
         id="path5437" />
    </g>
    <g
       id="g5668"
       transform="translate(10.69471,145.84427)">
      <path
         style="font-style:normal;font-variant:normal;font-weight:normal;font-stretch:normal;letter-spacing:normal;word-spacing:normal;text-anchor:start;fill:#000000;stroke:#000000;stroke-width:0;stroke-linecap:butt;stroke-linejoin:miter;stroke-miterlimit:10.43299961;stroke-opacity:1;stroke-dasharray:none;stroke-dashoffset:0"
         d="m 244.91783,61.58043 1.44999,-1.62499 c 0.1625,-0.174999 0.2375,-0.262498 1.27499,-0.262498 l 0,-0.574997 c -0.43749,0.025 -1.08749,0.025 -1.14999,0.025 -0.3125,0 -0.93749,-0.0125 -1.27499,-0.025 l 0,0.574997 c 0.1625,0 0.325,0.0375 0.475,0.112499 -0.0625,0.0875 -0.0625,0.112499 -0.1125,0.149999 l -1.0375,1.174992 -1.22499,-1.43749 0.5,0 0,-0.574997 c -0.325,0.0125 -1.11249,0.025 -1.51249,0.025 -0.3875,0 -0.94999,-0.0125 -1.36249,-0.025 l 0,0.574997 0.88749,0 1.93749,2.299985 -1.62499,1.824988 c -0.225,0.237499 -0.6625,0.237499 -1.26249,0.237499 l 0,0.587496 c 0.4375,-0.025 1.08749,-0.0375 1.14999,-0.0375 0.3125,0 1.02499,0.025 1.27499,0.0375 l 0,-0.587496 c -0.225,0 -0.46249,-0.0625 -0.46249,-0.137499 0,-0.0125 0,-0.025 0.0875,-0.125 l 1.21249,-1.349991 1.37499,1.61249 -0.4875,0 0,0.587496 c 0.325,-0.0125 1.07499,-0.0375 1.48749,-0.0375 0.4,0 0.9625,0.025 1.37499,0.0375 l 0,-0.587496 -0.88749,0 z"
         id="path5439" />
      <path
         style="font-style:normal;font-variant:normal;font-weight:normal;font-stretch:normal;letter-spacing:normal;word-spacing:normal;text-anchor:start;fill:#000000;stroke:#000000;stroke-width:0;stroke-linecap:butt;stroke-linejoin:miter;stroke-miterlimit:10.43299961;stroke-opacity:1;stroke-dasharray:none;stroke-dashoffset:0"
         d="m 251.35529,61.53043 -0.075,-0.0125 -0.075,0 -0.075,0 -0.0875,-0.0125 -0.075,0 -0.075,0 -0.075,-0.0125 -0.075,0 -0.6125,-0.025 c -0.0625,0.0125 -0.075,0.0125 -0.125,0.0125 -0.3375,0 -0.35,-0.112499 -0.3625,-0.212498 l -0.54999,0 -0.3375,2.249985 0.54999,0 c 0.075,-0.499997 0.1875,-0.737495 0.275,-0.749995 0.025,-0.0125 0.375,-0.0375 0.975,-0.0375 l 1.42499,0 c -0.2375,0.249999 -0.35,0.349998 -0.6375,0.662496 -0.59999,0.637496 -1.32499,1.849988 -1.32499,3.18748 0,0.662495 0.55,0.662495 0.6,0.662495 0.27499,0 0.42499,-0.149999 0.47499,-0.199998 0.1375,-0.162499 0.1375,-0.249999 0.1375,-0.837495 0,-1.399991 0.25,-2.174986 0.775,-2.699983 0.32499,-0.337498 1.14999,-1.199992 1.47499,-1.53749 0.025,-0.025 0.0375,-0.05 0.05,-0.075 0.0125,-0.025 0.0125,-0.0375 0.0125,-0.362498 z"
         id="path5441" />
    </g>
    <g
       id="g5672"
       transform="translate(111.99468,121.80691)">
      <path
         style="font-style:normal;font-variant:normal;font-weight:normal;font-stretch:normal;letter-spacing:normal;word-spacing:normal;text-anchor:start;fill:#000000;stroke:#000000;stroke-width:0;stroke-linecap:butt;stroke-linejoin:miter;stroke-miterlimit:10.43299961;stroke-opacity:1;stroke-dasharray:none;stroke-dashoffset:0"
         d="m 244.91783,84.080286 1.44999,-1.62499 c 0.1625,-0.174999 0.2375,-0.262498 1.27499,-0.262498 l 0,-0.574997 c -0.43749,0.025 -1.08749,0.0375 -1.14999,0.0375 -0.3125,0 -0.93749,-0.025 -1.27499,-0.0375 l 0,0.574997 c 0.1625,0 0.325,0.0375 0.475,0.112499 -0.0625,0.0875 -0.0625,0.1 -0.1125,0.149999 l -1.0375,1.174992 -1.22499,-1.43749 0.5,0 0,-0.574997 c -0.325,0.0125 -1.11249,0.0375 -1.51249,0.0375 -0.3875,0 -0.94999,-0.025 -1.36249,-0.0375 l 0,0.574997 0.88749,0 1.93749,2.299985 -1.62499,1.824988 c -0.225,0.237499 -0.6625,0.237499 -1.26249,0.237499 l 0,0.587496 c 0.4375,-0.025 1.08749,-0.0375 1.14999,-0.0375 0.3125,0 1.02499,0.025 1.27499,0.0375 l 0,-0.587496 c -0.225,0 -0.46249,-0.0625 -0.46249,-0.137499 0,-0.0125 0,-0.025 0.0875,-0.125 l 1.21249,-1.349991 1.37499,1.61249 -0.4875,0 0,0.587496 c 0.325,-0.0125 1.07499,-0.0375 1.48749,-0.0375 0.4,0 0.9625,0.025 1.37499,0.0375 l 0,-0.587496 -0.88749,0 z"
         id="path5443" />
      <path
         style="font-style:normal;font-variant:normal;font-weight:normal;font-stretch:normal;letter-spacing:normal;word-spacing:normal;text-anchor:start;fill:#000000;stroke:#000000;stroke-width:0;stroke-linecap:butt;stroke-linejoin:miter;stroke-miterlimit:10.43299961;stroke-opacity:1;stroke-dasharray:none;stroke-dashoffset:0"
         d="m 252.00529,86.430271 0.0625,-0.0375 0.0625,-0.025 0.05,-0.025 0.05,-0.0375 0.05,-0.025 0.05,-0.0375 0.0375,-0.025 0.05,-0.0375 0.0375,-0.0375 0.05,-0.025 0.0375,-0.0375 0.0375,-0.0375 0.025,-0.0375 0.0375,-0.0375 0.025,-0.0375 0.0375,-0.0375 0.025,-0.0375 0.025,-0.0375 0.025,-0.0375 0.025,-0.0375 0.0125,-0.0375 0.025,-0.0375 0.0125,-0.05 0.0125,-0.0375 0.0125,-0.0375 0.0125,-0.05 0.0125,-0.0375 0,-0.05 0.0125,-0.05 0,-0.0375 0,-0.05 0.0125,-0.05 c 0,-1.287491 -1.64999,-1.287491 -1.98749,-1.287491 l -0.05,0.399997 c 0.8125,0 1.2625,0.312498 1.2625,0.899994 0,0.437497 -0.2625,0.724996 -0.65,0.937494 l -1.42499,-0.724995 c -0.3,-0.149999 -0.4,-0.312498 -0.4,-0.487497 0,-0.437497 0.45,-0.624996 1.21249,-0.624996 l 0.05,-0.399997 c -1.41249,0 -2.02498,0.699995 -2.02498,1.54999 0,0.812494 0.74999,1.237492 0.83749,1.287491 -0.68749,0.262499 -1.14999,0.737496 -1.14999,1.449991 0,1.399991 1.58749,1.52499 2.29998,1.52499 l 0.0375,-0.437497 c -0.83749,0 -1.44999,-0.349998 -1.44999,-1.087493 0,-0.537496 0.3125,-0.924994 0.825,-1.174992 l 0,0 c 0.44999,0.224998 0.68749,0.349997 1.22499,0.624996 0.475,0.237498 0.79999,0.412497 0.79999,0.799995 0,0.674995 -0.74999,0.837494 -1.39999,0.837494 l -0.0375,0.437497 c 1.59999,0 2.33749,-0.774995 2.33749,-1.737489 0,-0.974993 -0.85,-1.387491 -1.23749,-1.574989 z"
         id="path5445" />
    </g>
    <path
       id="path5447"
       d="m 412.32498,326.41221 0,-0.025 0.0125,-0.0375 0.0125,-0.05 0.0125,-0.0375 0.0125,-0.05 0.0125,-0.05 0.0125,-0.0625 0.025,-0.05 0.0125,-0.0625 0.025,-0.0625 0.025,-0.0625 0.025,-0.0625 0.025,-0.0625 0.0375,-0.0625 0.025,-0.05 0.0375,-0.0625 0.0375,-0.0625 0.0375,-0.0625 0.05,-0.0625 0.0375,-0.05 0.05,-0.05 0.05,-0.05 0.05,-0.05 0.05,-0.05 0.0625,-0.0375 0.0625,-0.0375 0.025,-0.0125 0.0375,-0.0125 0.0375,-0.0125 0.025,-0.0125 0.0375,-0.0125 0.0375,-0.0125 0.0375,-0.0125 0.0375,0 0.0375,-0.0125 0.0375,0 0.0375,0 0.0375,0 c 0.0625,0 0.3625,0 0.625,0.1625 -0.35,0.0625 -0.6,0.3625 -0.6,0.66249 0,0.2 0.1375,0.4375 0.475,0.4375 0.275,0 0.67499,-0.225 0.67499,-0.72499 0,-0.65 -0.73749,-0.8125 -1.16249,-0.8125 -0.71249,0 -1.14999,0.65 -1.29999,0.95 -0.3125,-0.825 -0.98749,-0.95 -1.34999,-0.95 -1.29999,0 -1.99999,1.59999 -1.99999,1.91249 0,0.125 0.125,0.125 0.15,0.125 0.1,0 0.1375,-0.025 0.1625,-0.1375 0.425,-1.31249 1.23749,-1.62499 1.66249,-1.62499 0.2375,0 0.67499,0.1125 0.67499,0.82499 0,0.3875 -0.21249,1.225 -0.67499,2.97499 -0.2,0.76249 -0.6375,1.28749 -1.18749,1.28749 -0.0625,0 -0.35,0 -0.6125,-0.1625 0.3,-0.0625 0.5875,-0.325 0.5875,-0.675 0,-0.3375 -0.2875,-0.425 -0.4625,-0.425 -0.375,0 -0.6875,0.3125 -0.6875,0.7125 0,0.575 0.625,0.825 1.175,0.825 0.81249,0 1.26249,-0.875 1.29999,-0.95 0.15,0.4625 0.59999,0.95 1.34999,0.95 1.28749,0 1.98749,-1.61249 1.98749,-1.92499 0,-0.1125 -0.1125,-0.1125 -0.15,-0.1125 -0.1125,0 -0.1375,0.05 -0.1625,0.1375 -0.4125,1.32499 -1.24999,1.62499 -1.64999,1.62499 -0.4875,0 -0.6875,-0.4 -0.6875,-0.825 0,-0.2625 0.075,-0.54999 0.2125,-1.08749 z"
       style="font-style:normal;font-variant:normal;font-weight:normal;font-stretch:normal;letter-spacing:normal;word-spacing:normal;text-anchor:start;fill:#000000;stroke:#000000;stroke-width:0;stroke-linecap:butt;stroke-linejoin:miter;stroke-miterlimit:10.43299961;stroke-opacity:1;stroke-dasharray:none;stroke-dashoffset:0" />
    <path
       id="path5449"
       d="m 403.92499,310.03721 0.0125,0 0,-0.0125 0,-0.0125 0,-0.0125 0.0125,-0.0125 0,-0.0125 0,-0.0125 0,-0.0125 0.0125,-0.0125 0,-0.0125 0,-0.0125 0,0 0,-0.0125 0,-0.0125 0.0125,0 0,-0.0125 0,-0.0125 0,0 0,-0.0125 0,0 0,-0.0125 0,-0.0125 0,-0.0125 0,-0.0125 0,-0.0125 0,-0.0125 0,0 0,-0.0125 0,0 c 0,-0.22499 -0.175,-0.33749 -0.3625,-0.33749 -0.125,0 -0.325,0.075 -0.4375,0.24999 -0.025,0.0625 -0.125,0.45 -0.1625,0.675 -0.0875,0.325 -0.1875,0.6625 -0.25,0.99999 L 402.2,313.58719 c -0.05,0.1875 -0.5875,1.06249 -1.41249,1.06249 -0.6375,0 -0.775,-0.54999 -0.775,-1.01249 0,-0.575 0.2125,-1.33749 0.6375,-2.43749 0.2,-0.51249 0.25,-0.64999 0.25,-0.89999 0,-0.5625 -0.4,-1.01249 -1.0125,-1.01249 -1.18749,0 -1.64999,1.79999 -1.64999,1.91248 0,0.125 0.125,0.125 0.15,0.125 0.125,0 0.1375,-0.025 0.2,-0.22499 0.3375,-1.175 0.825,-1.53749 1.24999,-1.53749 0.1,0 0.3125,0 0.3125,0.38749 0,0.3125 -0.125,0.6375 -0.2125,0.875 -0.49999,1.32499 -0.72499,2.03748 -0.72499,2.62498 0,1.09999 0.78749,1.47499 1.52499,1.47499 0.48749,0 0.91249,-0.2125 1.26249,-0.5625 -0.1625,0.65 -0.3125,1.2625 -0.8125,1.92499 -0.32499,0.425 -0.79999,0.775 -1.37499,0.775 -0.175,0 -0.73749,-0.0375 -0.93749,-0.5125 0.2,0 0.3625,0 0.5375,-0.15 0.1125,-0.1125 0.24999,-0.275 0.24999,-0.5125 0,-0.38749 -0.33749,-0.43749 -0.47499,-0.43749 -0.275,0 -0.6875,0.2 -0.6875,0.81249 0,0.6125 0.55,1.075 1.31249,1.075 1.2875,0 2.57499,-1.125 2.92498,-2.53749 z"
       style="font-style:normal;font-variant:normal;font-weight:normal;font-stretch:normal;letter-spacing:normal;word-spacing:normal;text-anchor:start;fill:#000000;stroke:#000000;stroke-width:0;stroke-linecap:butt;stroke-linejoin:miter;stroke-miterlimit:10.43299961;stroke-opacity:1;stroke-dasharray:none;stroke-dashoffset:0" />
    <path
       id="path5451"
       d="m 380,298.47588 0.0625,-0.0625 0.0625,-0.0625 0.0625,-0.0625 0.0625,-0.0625 0.05,-0.0625 0.05,-0.05 0.0625,-0.05 0.05,-0.0625 0.05,-0.05 0.05,-0.0375 0.0375,-0.05 0.05,-0.05 0.05,-0.0375 0.0375,-0.05 0.1,-0.0875 0.075,-0.075 0.0875,-0.075 0.0875,-0.075 0.075,-0.0625 0.1625,-0.15 0.0875,-0.0625 0.075,-0.075 c 0,-0.0125 0.77499,-0.67499 1.22499,-1.12499 1.17499,-1.16249 1.44999,-1.76249 1.44999,-1.79999 0,-0.125 -0.1125,-0.125 -0.1375,-0.125 -0.0875,0 -0.125,0.025 -0.1875,0.1375 -0.375,0.5875 -0.625,0.7875 -0.93749,0.7875 -0.2875,0 -0.4375,-0.175 -0.625,-0.4 -0.2375,-0.275 -0.45,-0.525 -0.86249,-0.525 -0.9375,0 -1.49999,1.15 -1.49999,1.41249 0,0.0625 0.025,0.1375 0.1375,0.1375 0.11249,0 0.13749,-0.0625 0.17499,-0.1375 0.225,-0.57499 0.95,-0.57499 1.05,-0.57499 0.2625,0 0.49999,0.075 0.78749,0.175 0.5,0.1875 0.6375,0.1875 0.95,0.1875 -0.4375,0.53749 -1.48749,1.43749 -1.72499,1.63749 -0.625,0.56249 -0.6375,0.57499 -1.125,1.03749 -0.83749,0.83749 -1.27499,1.54999 -1.27499,1.63749 0,0.125 0.125,0.125 0.15,0.125 0.1,0 0.125,-0.025 0.2,-0.1625 0.2875,-0.4375 0.65,-0.775 1.04999,-0.775 0.3,0 0.4125,0.1125 0.725,0.475 0.2125,0.2625 0.4375,0.4625 0.79999,0.4625 1.2375,0 1.94999,-1.58749 1.94999,-1.92499 0,-0.05 -0.05,-0.1125 -0.15,-0.1125 -0.1125,0 -0.125,0.075 -0.175,0.1625 -0.28749,0.79999 -1.07499,1.03749 -1.48749,1.03749 -0.25,0 -0.47499,-0.075 -0.73749,-0.1625 -0.425,-0.1625 -0.6125,-0.2125 -0.875,-0.2125 -0.025,0 -0.225,0 -0.33749,0.0375 z"
       style="font-style:normal;font-variant:normal;font-weight:normal;font-stretch:normal;letter-spacing:normal;word-spacing:normal;text-anchor:start;fill:#000000;stroke:#000000;stroke-width:0;stroke-linecap:butt;stroke-linejoin:miter;stroke-miterlimit:10.43299961;stroke-opacity:1;stroke-dasharray:none;stroke-dashoffset:0" />
  </g>
</svg>
