<?xml version="1.0" encoding="UTF-8" standalone="no"?>
<!-- Created with Inkscape (http://www.inkscape.org/) -->

<svg
   xmlns:dc="http://purl.org/dc/elements/1.1/"
   xmlns:cc="http://creativecommons.org/ns#"
   xmlns:rdf="http://www.w3.org/1999/02/22-rdf-syntax-ns#"
   xmlns:svg="http://www.w3.org/2000/svg"
   xmlns="http://www.w3.org/2000/svg"
   xmlns:sodipodi="http://sodipodi.sourceforge.net/DTD/sodipodi-0.dtd"
   xmlns:inkscape="http://www.inkscape.org/namespaces/inkscape"
   width="744.09448819"
   height="1052.3622047"
   id="svg2"
   version="1.1"
   inkscape:version="0.47 r22583"
   sodipodi:docname="New document 1">
  <defs
     id="defs4"><inkscape:perspective
   sodipodi:type="inkscape:persp3d"
   inkscape:vp_x="0 : 526.18109 : 1"
   inkscape:vp_y="0 : 1000 : 0"
   inkscape:vp_z="744.09448 : 526.18109 : 1"
   inkscape:persp3d-origin="372.04724 : 350.78739 : 1"
   id="perspective10" />
<inkscape:perspective
   id="perspective2888"
   inkscape:persp3d-origin="360 : 240 : 1"
   inkscape:vp_z="720 : 360 : 1"
   inkscape:vp_y="0 : 1000 : 0"
   inkscape:vp_x="0 : 360 : 1"
   sodipodi:type="inkscape:persp3d" />




















<inkscape:perspective
   id="perspective3905"
   inkscape:persp3d-origin="360 : 240 : 1"
   inkscape:vp_z="720 : 360 : 1"
   inkscape:vp_y="0 : 1000 : 0"
   inkscape:vp_x="0 : 360 : 1"
   sodipodi:type="inkscape:persp3d" />




















<inkscape:perspective
   id="perspective4047"
   inkscape:persp3d-origin="360 : 240 : 1"
   inkscape:vp_z="720 : 360 : 1"
   inkscape:vp_y="0 : 1000 : 0"
   inkscape:vp_x="0 : 360 : 1"
   sodipodi:type="inkscape:persp3d" />




















</defs>
  <sodipodi:namedview
     id="base"
     pagecolor="#ffffff"
     bordercolor="#666666"
     borderopacity="1.0"
     inkscape:pageopacity="0.0"
     inkscape:pageshadow="2"
     inkscape:zoom="2.8"
     inkscape:cx="419.20942"
     inkscape:cy="659.38308"
     inkscape:document-units="px"
     inkscape:current-layer="layer1"
     showgrid="true"
     showguides="true"
     inkscape:guide-bbox="true"
     inkscape:window-width="886"
     inkscape:window-height="981"
     inkscape:window-x="8"
     inkscape:window-y="69"
     inkscape:window-maximized="0">
    <inkscape:grid
       empspacing="5"
       visible="true"
       enabled="true"
       snapvisiblegridlinesonly="true"
       type="xygrid"
       id="grid3000" />
  </sodipodi:namedview>
  <metadata
     id="metadata7">
    <rdf:RDF>
      <cc:Work
         rdf:about="">
        <dc:format>image/svg+xml</dc:format>
        <dc:type
           rdf:resource="http://purl.org/dc/dcmitype/StillImage" />
        <dc:title></dc:title>
      </cc:Work>
    </rdf:RDF>
  </metadata>
  <g
     inkscape:label="Layer 1"
     inkscape:groupmode="layer"
     id="layer1">
    <rect
       style="fill:none;fill-opacity:1;stroke:#000000;stroke-opacity:1"
       id="rect3009"
       width="100"
       height="100"
       x="400"
       y="352.36218" />
    <path
       style="fill:none;stroke:#000000;stroke-width:1;stroke-linecap:butt;stroke-linejoin:miter;stroke-opacity:1;stroke-miterlimit:4;stroke-dasharray:1,1;stroke-dashoffset:0"
       d="m 400,337.36218 0.0893,14.91072 L 385,352.36218"
       id="path3785" />
    <path
       style="fill:none;stroke:#000000;stroke-width:1;stroke-linecap:butt;stroke-linejoin:miter;stroke-opacity:1;stroke-miterlimit:4;stroke-dasharray:1,1;stroke-dashoffset:0"
       d="m 500,337.36218 0,15 15,0"
       id="path3787" />
    <path
       style="fill:none;stroke:#000000;stroke-width:1;stroke-linecap:butt;stroke-linejoin:miter;stroke-opacity:1;stroke-miterlimit:4;stroke-dasharray:1,1;stroke-dashoffset:0"
       d="M 515,452.36218 500.02551,452.33157 500,467.36218"
       id="path3789" />
    <path
       style="fill:none;stroke:#000000;stroke-width:1;stroke-linecap:butt;stroke-linejoin:miter;stroke-opacity:1;stroke-miterlimit:4;stroke-dasharray:1,1;stroke-dashoffset:0"
       d="m 400,467.36218 0,-15 -15,0"
       id="path3791" />
    <path
       sodipodi:type="arc"
       style="fill:#000000;stroke:none;stroke-width:1;stroke-linecap:round;stroke-linejoin:round;stroke-miterlimit:4;stroke-opacity:1;stroke-dasharray:1, 1;stroke-dashoffset:0;fill-opacity:1"
       id="path3799"
       sodipodi:cx="450"
       sodipodi:cy="402.36218"
       sodipodi:rx="5"
       sodipodi:ry="5"
       d="m 455,402.36218 a 5,5 0 1 1 -10,0 5,5 0 1 1 10,0 z"
       transform="matrix(0.5,0,0,0.5,225,201.18109)" />
    <path
       transform="matrix(0.5,0,0,0.5,174.99492,201.18109)"
       d="m 455,402.36218 a 5,5 0 1 1 -10,0 5,5 0 1 1 10,0 z"
       sodipodi:ry="5"
       sodipodi:rx="5"
       sodipodi:cy="402.36218"
       sodipodi:cx="450"
       id="path3801"
       style="fill:#000000;fill-opacity:1;stroke:none"
       sodipodi:type="arc" />
    <path
       sodipodi:type="arc"
       style="fill:#000000;fill-opacity:1;stroke:none"
       id="path3803"
       sodipodi:cx="450"
       sodipodi:cy="402.36218"
       sodipodi:rx="5"
       sodipodi:ry="5"
       d="m 455,402.36218 a 5,5 0 1 1 -10,0 5,5 0 1 1 10,0 z"
       transform="matrix(0.5,0,0,0.5,225.5,151.18109)" />
    <path
       transform="matrix(0.5,0,0,0.5,274.99492,201.18109)"
       d="m 455,402.36218 a 5,5 0 1 1 -10,0 5,5 0 1 1 10,0 z"
       sodipodi:ry="5"
       sodipodi:rx="5"
       sodipodi:cy="402.36218"
       sodipodi:cx="450"
       id="path3805"
       style="fill:#000000;fill-opacity:1;stroke:none"
       sodipodi:type="arc" />
    <path
       transform="matrix(0.5,0,0,0.5,225,251.18109)"
       d="m 455,402.36218 a 5,5 0 1 1 -10,0 5,5 0 1 1 10,0 z"
       sodipodi:ry="5"
       sodipodi:rx="5"
       sodipodi:cy="402.36218"
       sodipodi:cx="450"
       id="path3807"
       style="fill:#000000;fill-opacity:1;stroke:none"
       sodipodi:type="arc" />
    <g
       id="g4145"
       transform="translate(74.15779,32.570163)">
      <path
         style="font-style:normal;font-variant:normal;font-weight:normal;font-stretch:normal;letter-spacing:normal;word-spacing:normal;text-anchor:start;fill:#000000;stroke:#000000;stroke-width:0;stroke-linecap:butt;stroke-linejoin:miter;stroke-miterlimit:10.43299961;stroke-opacity:1;stroke-dasharray:none;stroke-dashoffset:0"
         d="m 368.25475,311.84198 0,0.0125 0,0.0125 -0.0125,0 0,0.0125 0,0.0125 0,0 0,0.0125 0,0 -0.0125,0.0125 0,0 0,0.0125 0,0 0,0.0125 0,0 0,0 -0.0125,0.0125 0,0 0,0.0125 0,0 0,0 0,0.0125 0,0 0,0 -0.0125,0 0,0.0125 0,0.0125 0,0 0,0 0,0.0125 -0.0125,0 0,0 0,0.0125 0,0 0,0 0,0 0,0.0125 -0.0125,0 0,0 0,0 0,0 0,0 0,0.0125 c -0.075,0.025 -0.2125,0.025 -0.325,0.025 -0.2125,0 -0.4375,0 -0.4375,0.3375 0,0.1375 0.1,0.2375 0.2375,0.2375 0.3625,0 0.775,-0.0375 1.14999,-0.0375 0.425,0 0.9,0.0375 1.32499,0.0375 0.0875,0 0.325,0 0.325,-0.35 0,-0.225 -0.2,-0.225 -0.325,-0.225 -0.17499,0 -0.37499,0 -0.53749,-0.025 l 0.53749,-2.16249 c 0.1875,0.175 0.6,0.45 1.2625,0.45 l -0.025,-0.45 c -0.7375,0 -1.0375,-0.58749 -1.0375,-0.71249 l 0.025,-0.1875 0.7625,-3.12498 c 0.3625,-0.425 0.94999,-0.81249 1.53749,-0.81249 0.77499,0 0.83749,0.68749 0.83749,0.94999 0,0.65 -0.41249,2.17499 -0.62499,2.67498 -0.375,0.9 -0.9875,1.21249 -1.49999,1.21249 l 0.025,0.45 c 2.16248,0 3.51247,-1.97499 3.51247,-3.67497 0,-1.53749 -1.14999,-2.04999 -2.18748,-2.04999 -0.875,0 -1.52499,0.4875 -1.72499,0.66249 -0.475,-0.66249 -1.29999,-0.66249 -1.43749,-0.66249 -0.45,0 -0.8125,0.2625 -1.07499,0.71249 -0.3125,0.5 -0.475,1.1625 -0.475,1.225 0,0.17499 0.1875,0.17499 0.3,0.17499 0.1375,0 0.1875,0 0.24999,-0.0625 0.025,-0.025 0.025,-0.05 0.1,-0.36249 0.25,-1 0.5375,-1.25 0.85,-1.25 0.125,0 0.275,0.0625 0.275,0.4625 0,0.2 -0.025,0.3625 -0.075,0.5375 z"
         id="path4003" />
      <path
         style="font-style:normal;font-variant:normal;font-weight:normal;font-stretch:normal;letter-spacing:normal;word-spacing:normal;text-anchor:start;fill:#000000;stroke:#000000;stroke-width:0;stroke-linecap:butt;stroke-linejoin:miter;stroke-miterlimit:10.43299961;stroke-opacity:1;stroke-dasharray:none;stroke-dashoffset:0"
         d="m 381.32966,302.11704 0.1125,-0.025 0.125,-0.025 0.1,-0.025 0.1125,-0.0375 0.1,-0.025 0.1,-0.0375 0.1,-0.0375 0.0875,-0.0375 0.0875,-0.0375 0.0875,-0.05 0.0875,-0.0375 0.075,-0.05 0.075,-0.05 0.075,-0.05 0.0625,-0.05 0.0625,-0.05 0.0625,-0.0625 0.0625,-0.05 0.05,-0.0625 0.05,-0.05 0.05,-0.0625 0.0375,-0.0625 0.0375,-0.0625 0.0375,-0.0625 0.025,-0.0625 0.025,-0.0625 0.025,-0.0625 0.0125,-0.0625 0.0125,-0.0625 0.0125,-0.0625 0.0125,-0.0625 0,-0.0625 c 0,-0.77499 -0.77499,-1.24999 -2.07499,-1.24999 l -0.22499,0.475 c 0.19999,0 1.02499,0 1.02499,0.78749 0,0.625 -0.6125,1.39999 -1.81249,1.39999 l -1.59999,0 -0.1,0.4 1.93749,0 c 0.25,0 1.13749,0 1.13749,0.9125 0,0.74999 -0.59999,1.51249 -1.82499,1.51249 l 0,0 -1.84998,0 0.59999,-2.42499 0.1,-0.4 0.5125,-2.02499 c 0.025,-0.12499 0.0375,-0.13749 0.0875,-0.14999 0.05,-0.0125 0.0625,-0.0125 0.2125,-0.0125 l 1.57499,0 0.22499,-0.475 -3.77497,0 c -0.1625,0 -0.35,0 -0.35,0.2875 0,0.1875 0.1875,0.1875 0.325,0.1875 l 0.175,0 c 0.36249,0 0.36249,0.025 0.36249,0.05 l -1.19999,4.79997 c -0.025,0.125 -0.0375,0.1375 -0.2,0.15 -0.1125,0.0125 -0.28749,0.0125 -0.39999,0.0125 -0.2625,0 -0.2875,0 -0.3125,0.0375 -0.1125,0.0625 -0.1125,0.19999 -0.1125,0.26249 0,0.1875 0.175,0.1875 0.3125,0.1875 l 3.97497,0 c 1.97499,0 2.87498,-1.13749 2.87498,-1.91249 0,-0.66249 -0.59999,-1.09999 -1.56249,-1.21249 z"
         id="path4005" />
    </g>
    <g
       id="g4141"
       transform="translate(79.67027,135.68282)">
      <path
         style="font-style:normal;font-variant:normal;font-weight:normal;font-stretch:normal;letter-spacing:normal;word-spacing:normal;text-anchor:start;fill:#000000;stroke:#000000;stroke-width:0;stroke-linecap:butt;stroke-linejoin:miter;stroke-miterlimit:10.43299961;stroke-opacity:1;stroke-dasharray:none;stroke-dashoffset:0"
         d="m 368.25475,334.34184 0,0.0125 0,0.0125 -0.0125,0 0,0.0125 0,0.0125 0,0 0,0.0125 0,0 -0.0125,0.0125 0,0 0,0.0125 0,0 0,0.0125 0,0 0,0 -0.0125,0.0125 0,0 0,0.0125 0,0 0,0 0,0.0125 0,0 0,0 -0.0125,0 0,0.0125 0,0.0125 0,0 0,0 0,0.0125 -0.0125,0 0,0 0,0.0125 0,0 0,0 0,0 0,0.0125 -0.0125,0 0,0 0,0 0,0 0,0 0,0.0125 c -0.075,0.025 -0.2125,0.025 -0.325,0.025 -0.2125,0 -0.4375,0 -0.4375,0.33749 0,0.1375 0.1,0.2375 0.2375,0.2375 0.3625,0 0.775,-0.0375 1.14999,-0.0375 0.425,0 0.9,0.0375 1.32499,0.0375 0.0875,0 0.325,0 0.325,-0.34999 0,-0.225 -0.2,-0.225 -0.325,-0.225 -0.17499,0 -0.37499,0 -0.53749,-0.025 l 0.53749,-2.16249 c 0.1875,0.175 0.6,0.45 1.2625,0.45 l -0.025,-0.45 c -0.7375,0 -1.0375,-0.5875 -1.0375,-0.71249 l 0.025,-0.1875 0.7625,-3.12498 c 0.3625,-0.425 0.94999,-0.8125 1.53749,-0.8125 0.77499,0 0.83749,0.6875 0.83749,0.95 0,0.64999 -0.41249,2.17498 -0.62499,2.67498 -0.375,0.89999 -0.9875,1.21249 -1.49999,1.21249 l 0.025,0.45 c 2.16248,0 3.51247,-1.97499 3.51247,-3.67498 0,-1.53749 -1.14999,-2.04999 -2.18748,-2.04999 -0.875,0 -1.52499,0.4875 -1.72499,0.6625 -0.475,-0.6625 -1.29999,-0.6625 -1.43749,-0.6625 -0.45,0 -0.8125,0.2625 -1.07499,0.7125 -0.3125,0.5 -0.475,1.16249 -0.475,1.22499 0,0.175 0.1875,0.175 0.3,0.175 0.1375,0 0.1875,0 0.24999,-0.0625 0.025,-0.025 0.025,-0.05 0.1,-0.3625 0.25,-0.99999 0.5375,-1.24999 0.85,-1.24999 0.125,0 0.275,0.0625 0.275,0.4625 0,0.2 -0.025,0.3625 -0.075,0.53749 z"
         id="path4007" />
      <path
         style="font-style:normal;font-variant:normal;font-weight:normal;font-stretch:normal;letter-spacing:normal;word-spacing:normal;text-anchor:start;fill:#000000;stroke:#000000;stroke-width:0;stroke-linecap:butt;stroke-linejoin:miter;stroke-miterlimit:10.43299961;stroke-opacity:1;stroke-dasharray:none;stroke-dashoffset:0"
         d="m 381.32966,321.82942 0,-0.0125 0,-0.0125 0,-0.0125 0,-0.0125 -0.0125,-0.0125 0,0 0,-0.0125 0,-0.0125 -0.0125,-0.025 0,-0.0125 -0.0125,-0.025 -0.0125,-0.0125 0,-0.0125 -0.0125,-0.0125 -0.0125,-0.0125 0,-0.0125 -0.0125,-0.0125 -0.0125,0 -0.0125,-0.0125 -0.0125,0 -0.0125,-0.0125 -0.0125,0 -0.0125,-0.0125 -0.025,0 -0.0125,0 -0.0125,-0.0125 -0.025,0 -0.0125,0 -0.025,0 -0.0125,0 -0.025,0 -0.025,0 -0.0125,0 -0.025,0 -0.025,0 -0.025,0 c -0.2875,0 -0.375,0 -0.55,0.24999 l -3.56248,5.12497 c -0.125,0.175 -0.225,0.3125 -0.83749,0.325 -0.1375,0 -0.3125,0 -0.3125,0.3 0,0.1125 0.0875,0.1875 0.175,0.1875 0.275,0 0.58749,-0.0375 0.86249,-0.0375 0.2375,0 0.8125,0.0375 1.05,0.0375 0.1375,0 0.26249,-0.0625 0.26249,-0.3 0,-0.1875 -0.18749,-0.1875 -0.26249,-0.1875 -0.05,0 -0.2625,0 -0.425,-0.075 0.0375,-0.05 0.4375,-0.6125 0.81249,-1.18749 l 2.68749,0 -0.1,-0.475 -2.23749,0 1.74999,-2.53749 0.4875,2.53749 0.1,0.475 0.2125,1.08749 c 0.0125,0.0625 0.0125,0.075 0.0125,0.1125 0,0.0625 -0.375,0.0625 -0.4625,0.0625 -0.2375,0 -0.2375,0.0125 -0.2875,0.0625 -0.075,0.075 -0.0875,0.225 -0.0875,0.2375 0,0.0625 0.05,0.1875 0.2,0.1875 0.2,0 0.425,-0.025 0.6375,-0.025 0.19999,0 0.48749,-0.0125 0.68749,-0.0125 l 0.6,0.0125 c 0.2,0 0.41249,0.025 0.59999,0.025 0.075,0 0.275,0 0.275,-0.3 0,-0.1875 -0.1625,-0.1875 -0.375,-0.1875 -0.1125,0 -0.22499,0 -0.33749,-0.0125 -0.1,-0.0125 -0.1,-0.0125 -0.125,-0.15 z"
         id="path4009" />
    </g>
    <g
       id="g4137"
       transform="translate(11.88277,50.495453)">
      <path
         style="font-style:normal;font-variant:normal;font-weight:normal;font-stretch:normal;letter-spacing:normal;word-spacing:normal;text-anchor:start;fill:#000000;stroke:#000000;stroke-width:0;stroke-linecap:butt;stroke-linejoin:miter;stroke-miterlimit:10.43299961;stroke-opacity:1;stroke-dasharray:none;stroke-dashoffset:0"
         d="m 368.25475,356.84169 0,0.0125 0,0.0125 -0.0125,0 0,0.0125 0,0.0125 0,0 0,0.0125 0,0 -0.0125,0.0125 0,0 0,0.0125 0,0 0,0.0125 0,0 0,0 -0.0125,0.0125 0,0 0,0.0125 0,0 0,0 0,0.0125 0,0 0,0 -0.0125,0 0,0.0125 0,0.0125 0,0 0,0 0,0.0125 -0.0125,0 0,0 0,0.0125 0,0 0,0 0,0 0,0.0125 -0.0125,0 0,0 0,0 0,0 0,0 0,0.0125 c -0.075,0.025 -0.2125,0.025 -0.325,0.025 -0.2125,0 -0.4375,0 -0.4375,0.3375 0,0.1375 0.1,0.2375 0.2375,0.2375 0.3625,0 0.775,-0.0375 1.14999,-0.0375 0.425,0 0.9,0.0375 1.32499,0.0375 0.0875,0 0.325,0 0.325,-0.35 0,-0.225 -0.2,-0.225 -0.325,-0.225 -0.17499,0 -0.37499,0 -0.53749,-0.025 l 0.53749,-2.16249 c 0.1875,0.175 0.6,0.45 1.2625,0.45 l -0.025,-0.45 c -0.7375,0 -1.0375,-0.58749 -1.0375,-0.71249 l 0.025,-0.1875 0.7625,-3.12498 c 0.3625,-0.425 0.94999,-0.81249 1.53749,-0.81249 0.77499,0 0.83749,0.68749 0.83749,0.94999 0,0.65 -0.41249,2.17499 -0.62499,2.67498 -0.375,0.9 -0.9875,1.21249 -1.49999,1.21249 l 0.025,0.45 c 2.16248,0 3.51247,-1.97499 3.51247,-3.67497 0,-1.53749 -1.14999,-2.04999 -2.18748,-2.04999 -0.875,0 -1.52499,0.4875 -1.72499,0.66249 -0.475,-0.66249 -1.29999,-0.66249 -1.43749,-0.66249 -0.45,0 -0.8125,0.2625 -1.07499,0.71249 -0.3125,0.5 -0.475,1.1625 -0.475,1.225 0,0.17499 0.1875,0.17499 0.3,0.17499 0.1375,0 0.1875,0 0.24999,-0.0625 0.025,-0.025 0.025,-0.05 0.1,-0.36249 0.25,-1 0.5375,-1.25 0.85,-1.25 0.125,0 0.275,0.0625 0.275,0.4625 0,0.2 -0.025,0.3625 -0.075,0.5375 z"
         id="path4011" />
      <path
         style="font-style:normal;font-variant:normal;font-weight:normal;font-stretch:normal;letter-spacing:normal;word-spacing:normal;text-anchor:start;fill:#000000;stroke:#000000;stroke-width:0;stroke-linecap:butt;stroke-linejoin:miter;stroke-miterlimit:10.43299961;stroke-opacity:1;stroke-dasharray:none;stroke-dashoffset:0"
         d="m 383.29215,344.42927 0,-0.0125 0,0 0,-0.0125 0,0 0,0 0,-0.0125 0.0125,0 0,0 0,-0.0125 0,0 0,-0.0125 0,0 0,0 0,0 0,-0.0125 0,0 0.0125,0 0,-0.0125 0,0 0,0 0,0 0,-0.0125 0,0 0,0 0,-0.0125 0,0 0,0 0,-0.0125 0.0125,0 0,0 0,-0.0125 0,0 0,0 0,0 0,0 0,0 0,0 0,-0.0125 0,0 0,0 0,0 c 0,-0.1625 -0.15,-0.1625 -0.2875,-0.1625 l -0.84999,0.625 c -0.4875,-0.45 -1.16249,-0.625 -1.82499,-0.625 -3.03748,0 -4.67497,2.06249 -4.67497,3.82498 0,1.72499 1.46249,2.43748 3.19998,2.43748 1.31249,0 2.43748,-0.56249 3.01248,-1.27499 0.35,-0.45 0.45,-0.86249 0.45,-0.91249 0,-0.1625 -0.1625,-0.1625 -0.2875,-0.1625 -0.15,0 -0.225,0 -0.2625,0.15 -0.3875,1.21249 -1.67499,1.71248 -2.66248,1.71248 -0.375,0 -1.1375,-0.05 -1.63749,-0.47499 -0.35,-0.2875 -0.475,-0.6625 -0.475,-1.16249 0,-0.325 0.15,-1.89999 1.11249,-2.78749 0.775,-0.73749 1.79999,-0.84999 2.38749,-0.84999 1.13749,0 1.64999,0.74999 1.64999,1.53749 0,0.075 -0.0125,0.175 -0.0125,0.25 0,0.1625 0.125,0.1625 0.3125,0.1625 0.24999,0 0.27499,0 0.32499,-0.2125 z"
         id="path4013" />
    </g>
    <g
       id="g4133"
       transform="translate(139.29533,27.620593)">
      <path
         style="font-style:normal;font-variant:normal;font-weight:normal;font-stretch:normal;letter-spacing:normal;word-spacing:normal;text-anchor:start;fill:#000000;stroke:#000000;stroke-width:0;stroke-linecap:butt;stroke-linejoin:miter;stroke-miterlimit:10.43299961;stroke-opacity:1;stroke-dasharray:none;stroke-dashoffset:0"
         d="m 368.25475,379.34155 0,0.0125 0,0.0125 -0.0125,0 0,0.0125 0,0.0125 0,0 0,0.0125 0,0 -0.0125,0.0125 0,0 0,0.0125 0,0 0,0.0125 0,0 0,0 -0.0125,0.0125 0,0 0,0.0125 0,0 0,0 0,0.0125 0,0 0,0 -0.0125,0 0,0.0125 0,0.0125 0,0 0,0 0,0.0125 -0.0125,0 0,0 0,0.0125 0,0 0,0 0,0 0,0.0125 -0.0125,0 0,0 0,0 0,0 0,0 0,0.0125 c -0.075,0.025 -0.2125,0.025 -0.325,0.025 -0.2125,0 -0.4375,0 -0.4375,0.33749 0,0.1375 0.1,0.2375 0.2375,0.2375 0.3625,0 0.775,-0.0375 1.14999,-0.0375 0.425,0 0.9,0.0375 1.32499,0.0375 0.0875,0 0.325,0 0.325,-0.35 0,-0.22499 -0.2,-0.22499 -0.325,-0.22499 -0.17499,0 -0.37499,0 -0.53749,-0.025 l 0.53749,-2.16249 c 0.1875,0.175 0.6,0.45 1.2625,0.45 l -0.025,-0.45 c -0.7375,0 -1.0375,-0.5875 -1.0375,-0.7125 l 0.025,-0.18749 0.7625,-3.12498 c 0.3625,-0.425 0.94999,-0.8125 1.53749,-0.8125 0.77499,0 0.83749,0.6875 0.83749,0.95 0,0.64999 -0.41249,2.17498 -0.62499,2.67498 -0.375,0.89999 -0.9875,1.21249 -1.49999,1.21249 l 0.025,0.45 c 2.16248,0 3.51247,-1.97499 3.51247,-3.67498 0,-1.53749 -1.14999,-2.04999 -2.18748,-2.04999 -0.875,0 -1.52499,0.4875 -1.72499,0.6625 -0.475,-0.6625 -1.29999,-0.6625 -1.43749,-0.6625 -0.45,0 -0.8125,0.2625 -1.07499,0.7125 -0.3125,0.5 -0.475,1.16249 -0.475,1.22499 0,0.175 0.1875,0.175 0.3,0.175 0.1375,0 0.1875,0 0.24999,-0.0625 0.025,-0.025 0.025,-0.05 0.1,-0.3625 0.25,-0.99999 0.5375,-1.24999 0.85,-1.24999 0.125,0 0.275,0.0625 0.275,0.4625 0,0.2 -0.025,0.3625 -0.075,0.53749 z"
         id="path4015" />
      <path
         style="font-style:normal;font-variant:normal;font-weight:normal;font-stretch:normal;letter-spacing:normal;word-spacing:normal;text-anchor:start;fill:#000000;stroke:#000000;stroke-width:0;stroke-linecap:butt;stroke-linejoin:miter;stroke-miterlimit:10.43299961;stroke-opacity:1;stroke-dasharray:none;stroke-dashoffset:0"
         d="m 376.72969,372.09159 0,0.0125 0,0.0125 0,0 0,0.0125 -0.0125,0.0125 0,0.0125 0,0 0,0.0125 -0.0125,0 0,0.0125 0,0 0,0.0125 -0.0125,0 0,0.0125 0,0 -0.0125,0 0,0.0125 -0.0125,0 0,0 -0.0125,0 0,0.0125 -0.0125,0 0,0 -0.0125,0 -0.0125,0 -0.0125,0.0125 0,0 -0.0125,0 -0.0125,0 0,0 -0.0125,0 0,0 -0.0125,0 0,0 -0.0125,0 -0.0125,0 c -0.1125,0.0125 -0.28749,0.0125 -0.39999,0.0125 -0.2625,0 -0.2875,0 -0.3125,0.0375 -0.125,0.0625 -0.125,0.2 -0.125,0.2625 0,0.1875 0.1875,0.1875 0.325,0.1875 l 3.68747,0 -0.22499,-0.4875 -1.55,0 1.2125,-4.84997 c 0.0375,-0.125 0.05,-0.13749 0.0875,-0.14999 0.05,-0.0125 0.075,-0.0125 0.2,-0.0125 l 1.28749,0 c 0.25,0 0.94999,0.025 1.41249,0.36249 0.51249,0.375 0.51249,0.8875 0.51249,1.1125 0,0.52499 -0.27499,2.03748 -0.92499,2.71248 -0.5875,0.58749 -1.36249,0.82499 -2.23748,0.82499 l 0.22499,0.4875 c 2.62499,0 4.19998,-1.91249 4.19998,-3.73748 0,-1.68749 -1.41249,-2.23748 -2.69999,-2.23748 l -3.78747,0 c -0.1625,0 -0.35,0 -0.35,0.2875 0,0.1875 0.175,0.1875 0.325,0.1875 l 0.1625,0 c 0.37499,0 0.37499,0.025 0.37499,0.05 z"
         id="path4017" />
    </g>
    <g
       id="g4129"
       transform="translate(16.29533,61.358273)">
      <path
         style="font-style:normal;font-variant:normal;font-weight:normal;font-stretch:normal;letter-spacing:normal;word-spacing:normal;text-anchor:start;fill:#000000;stroke:#000000;stroke-width:0;stroke-linecap:butt;stroke-linejoin:miter;stroke-miterlimit:10.43299961;stroke-opacity:1;stroke-dasharray:none;stroke-dashoffset:0"
         d="m 375.5297,393.99145 -0.0375,0.0125 -0.05,0.025 -0.0375,0.0125 -0.0375,0.0125 -0.0375,0.025 -0.025,0.0125 -0.0375,0.025 -0.0375,0.025 -0.025,0.025 -0.025,0.025 -0.0375,0.025 -0.025,0.025 -0.025,0.025 -0.025,0.025 -0.025,0.0375 -0.0125,0.025 -0.025,0.0375 -0.025,0.025 -0.0125,0.0375 -0.0125,0.025 -0.025,0.0375 -0.0125,0.025 -0.0125,0.0375 -0.0125,0.025 0,0.0375 -0.0125,0.025 -0.0125,0.0375 0,0.025 0,0.0375 -0.0125,0.025 0,0.0375 0,0.025 c 0,0.275 0.2125,0.57499 0.625,0.57499 0.4375,0 0.89999,-0.36249 0.89999,-0.96249 0,-0.67499 -0.66249,-1.09999 -1.42499,-1.09999 -0.71249,0 -1.16249,0.53749 -1.32499,0.74999 -0.3125,-0.51249 -1.01249,-0.74999 -1.72499,-0.74999 -1.56249,0 -2.41248,1.52499 -2.41248,1.93749 0,0.17499 0.1875,0.17499 0.3,0.17499 0.15,0 0.2375,0 0.2875,-0.16249 0.36249,-1.125 1.24999,-1.51249 1.76248,-1.51249 0.475,0 0.7,0.22499 0.7,0.62499 0,0.2375 -0.175,0.925 -0.2875,1.37499 -0.1125,0.4625 -0.3375,1.37499 -0.425,1.69999 -0.18749,0.7625 -0.63749,1.13749 -1.04999,1.13749 -0.075,0 -0.3625,0 -0.6125,-0.18749 0.45,-0.125 0.675,-0.55 0.675,-0.8625 0,-0.275 -0.2,-0.5625 -0.6125,-0.5625 -0.43749,0 -0.89999,0.3625 -0.89999,0.9625 0,0.66249 0.6625,1.09999 1.42499,1.09999 0.7,0 1.16249,-0.5375 1.32499,-0.76249 0.3125,0.52499 1.0125,0.76249 1.72499,0.76249 1.56249,0 2.41249,-1.53749 2.41249,-1.93749 0,-0.175 -0.1875,-0.175 -0.3,-0.175 -0.15,0 -0.2375,0 -0.2875,0.1625 -0.3625,1.125 -1.26249,1.49999 -1.77499,1.49999 -0.475,0 -0.68749,-0.22499 -0.68749,-0.62499 0,-0.25 0.16249,-0.925 0.27499,-1.37499 0.075,-0.325 0.3625,-1.49999 0.4375,-1.69999 0.175,-0.75 0.6125,-1.13749 1.04999,-1.13749 0.0625,0 0.35,0 0.6,0.18749 z"
         id="path4019" />
      <path
         style="font-style:normal;font-variant:normal;font-weight:normal;font-stretch:normal;letter-spacing:normal;word-spacing:normal;text-anchor:start;fill:#000000;stroke:#000000;stroke-width:0;stroke-linecap:butt;stroke-linejoin:miter;stroke-miterlimit:10.43299961;stroke-opacity:1;stroke-dasharray:none;stroke-dashoffset:0"
         d="m 379.82967,396.07894 0,-0.0125 0,-0.0125 0,-0.0125 0,-0.0125 0,-0.0125 0,-0.0125 0,-0.0125 0,-0.0125 0,-0.0125 0,-0.0125 0,-0.0125 -0.0125,0 0,-0.0125 0,-0.0125 0,-0.0125 0,-0.0125 -0.0125,-0.025 0,-0.0125 -0.0125,0 -0.0125,-0.0125 0,-0.0125 -0.0125,-0.0125 -0.0125,0 -0.0125,-0.0125 -0.0125,0 -0.0125,-0.0125 -0.0125,0 -0.025,0 -0.0125,-0.0125 -0.025,0 -0.0125,0 -0.025,0 -0.025,0 -0.0125,0 -0.0125,0 -0.0125,0 -0.0125,0 -0.0125,0 -0.0125,0 -0.0125,0 -0.025,0 -0.0125,0 -0.0125,0 -0.025,0 -0.0125,0 c -0.5375,0.425 -1.25,0.55 -1.94999,0.55 l -0.2125,0 0,0.4875 0.2125,0 c 0.35,0 0.87499,-0.05 1.24999,-0.175 l 0,4.36247 -1.38749,0 0,0.4875 c 0.4375,-0.0375 1.47499,-0.0375 1.94999,-0.0375 0.31249,0 0.62499,0.0125 0.93749,0.0125 0.2625,0 0.7125,0 0.97499,0.025 l 0,-0.4875 -1.34999,0 z"
         id="path4021" />
    </g>
    <g
       id="g4125"
       transform="translate(132.92028,41.533393)">
      <path
         style="font-style:normal;font-variant:normal;font-weight:normal;font-stretch:normal;letter-spacing:normal;word-spacing:normal;text-anchor:start;fill:#000000;stroke:#000000;stroke-width:0;stroke-linecap:butt;stroke-linejoin:miter;stroke-miterlimit:10.43299961;stroke-opacity:1;stroke-dasharray:none;stroke-dashoffset:0"
         d="m 375.5297,416.49131 -0.0375,0.0125 -0.05,0.025 -0.0375,0.0125 -0.0375,0.0125 -0.0375,0.025 -0.025,0.0125 -0.0375,0.025 -0.0375,0.025 -0.025,0.025 -0.025,0.025 -0.0375,0.025 -0.025,0.025 -0.025,0.025 -0.025,0.025 -0.025,0.0375 -0.0125,0.025 -0.025,0.0375 -0.025,0.025 -0.0125,0.0375 -0.0125,0.025 -0.025,0.0375 -0.0125,0.025 -0.0125,0.0375 -0.0125,0.025 0,0.0375 -0.0125,0.025 -0.0125,0.0375 0,0.025 0,0.0375 -0.0125,0.025 0,0.0375 0,0.025 c 0,0.275 0.2125,0.575 0.625,0.575 0.4375,0 0.89999,-0.3625 0.89999,-0.96249 0,-0.675 -0.66249,-1.1 -1.42499,-1.1 -0.71249,0 -1.16249,0.5375 -1.32499,0.75 -0.3125,-0.5125 -1.01249,-0.75 -1.72499,-0.75 -1.56249,0 -2.41248,1.52499 -2.41248,1.93749 0,0.175 0.1875,0.175 0.3,0.175 0.15,0 0.2375,0 0.2875,-0.1625 0.36249,-1.12499 1.24999,-1.51249 1.76248,-1.51249 0.475,0 0.7,0.225 0.7,0.625 0,0.2375 -0.175,0.92499 -0.2875,1.37499 -0.1125,0.4625 -0.3375,1.37499 -0.425,1.69999 -0.18749,0.76249 -0.63749,1.13749 -1.04999,1.13749 -0.075,0 -0.3625,0 -0.6125,-0.1875 0.45,-0.125 0.675,-0.55 0.675,-0.86249 0,-0.275 -0.2,-0.5625 -0.6125,-0.5625 -0.43749,0 -0.89999,0.3625 -0.89999,0.96249 0,0.6625 0.6625,1.1 1.42499,1.1 0.7,0 1.16249,-0.5375 1.32499,-0.7625 0.3125,0.525 1.0125,0.7625 1.72499,0.7625 1.56249,0 2.41249,-1.53749 2.41249,-1.93749 0,-0.175 -0.1875,-0.175 -0.3,-0.175 -0.15,0 -0.2375,0 -0.2875,0.1625 -0.3625,1.12499 -1.26249,1.49999 -1.77499,1.49999 -0.475,0 -0.68749,-0.225 -0.68749,-0.625 0,-0.24999 0.16249,-0.92499 0.27499,-1.37499 0.075,-0.32499 0.3625,-1.49999 0.4375,-1.69999 0.175,-0.74999 0.6125,-1.13749 1.04999,-1.13749 0.0625,0 0.35,0 0.6,0.1875 z"
         id="path4023" />
      <path
         style="font-style:normal;font-variant:normal;font-weight:normal;font-stretch:normal;letter-spacing:normal;word-spacing:normal;text-anchor:start;fill:#000000;stroke:#000000;stroke-width:0;stroke-linecap:butt;stroke-linejoin:miter;stroke-miterlimit:10.43299961;stroke-opacity:1;stroke-dasharray:none;stroke-dashoffset:0"
         d="m 381.39216,422.00377 -0.54999,0 c -0.0125,0.1 -0.0875,0.725 -0.25,0.7625 -0.1875,0.025 -0.7125,0.025 -0.9125,0.025 l -1.18749,0 c 0.475,-0.35 0.9625,-0.7125 1.47499,-1.02499 0.7,-0.4625 1.42499,-0.925 1.42499,-1.79999 0,-1.0375 -0.98749,-1.68749 -2.37498,-1.68749 -1.17499,0 -2.07499,0.45 -2.07499,1.28749 0,0.5 0.4125,0.6875 0.675,0.6875 0.31249,0 0.67499,-0.225 0.67499,-0.675 0,-0.425 -0.3125,-0.6 -0.3375,-0.6125 0.3125,-0.19999 0.7125,-0.19999 0.8125,-0.19999 0.73749,0 1.32499,0.46249 1.32499,1.21249 0,0.67499 -0.45,1.22499 -0.94999,1.67499 l -2.07499,1.83749 c -0.1125,0.11249 -0.125,0.11249 -0.125,0.28749 l 0,0.2125 4.14997,0 z"
         id="path4025" />
    </g>
    <g
       id="g4121"
       transform="translate(12.92028,-80.966467)">
      <path
         style="font-style:normal;font-variant:normal;font-weight:normal;font-stretch:normal;letter-spacing:normal;word-spacing:normal;text-anchor:start;fill:#000000;stroke:#000000;stroke-width:0;stroke-linecap:butt;stroke-linejoin:miter;stroke-miterlimit:10.43299961;stroke-opacity:1;stroke-dasharray:none;stroke-dashoffset:0"
         d="m 375.5297,438.99117 -0.0375,0.0125 -0.05,0.025 -0.0375,0.0125 -0.0375,0.0125 -0.0375,0.025 -0.025,0.0125 -0.0375,0.025 -0.0375,0.025 -0.025,0.025 -0.025,0.025 -0.0375,0.025 -0.025,0.025 -0.025,0.025 -0.025,0.025 -0.025,0.0375 -0.0125,0.025 -0.025,0.0375 -0.025,0.025 -0.0125,0.0375 -0.0125,0.025 -0.025,0.0375 -0.0125,0.025 -0.0125,0.0375 -0.0125,0.025 0,0.0375 -0.0125,0.025 -0.0125,0.0375 0,0.025 0,0.0375 -0.0125,0.025 0,0.0375 0,0.025 c 0,0.275 0.2125,0.575 0.625,0.575 0.4375,0 0.89999,-0.3625 0.89999,-0.9625 0,-0.67499 -0.66249,-1.09999 -1.42499,-1.09999 -0.71249,0 -1.16249,0.5375 -1.32499,0.75 -0.3125,-0.5125 -1.01249,-0.75 -1.72499,-0.75 -1.56249,0 -2.41248,1.52499 -2.41248,1.93749 0,0.175 0.1875,0.175 0.3,0.175 0.15,0 0.2375,0 0.2875,-0.1625 0.36249,-1.125 1.24999,-1.51249 1.76248,-1.51249 0.475,0 0.7,0.225 0.7,0.62499 0,0.2375 -0.175,0.925 -0.2875,1.37499 -0.1125,0.4625 -0.3375,1.375 -0.425,1.69999 -0.18749,0.7625 -0.63749,1.1375 -1.04999,1.1375 -0.075,0 -0.3625,0 -0.6125,-0.1875 0.45,-0.125 0.675,-0.55 0.675,-0.8625 0,-0.275 -0.2,-0.56249 -0.6125,-0.56249 -0.43749,0 -0.89999,0.36249 -0.89999,0.96249 0,0.6625 0.6625,1.09999 1.42499,1.09999 0.7,0 1.16249,-0.53749 1.32499,-0.76249 0.3125,0.52499 1.0125,0.76249 1.72499,0.76249 1.56249,0 2.41249,-1.53749 2.41249,-1.93748 0,-0.175 -0.1875,-0.175 -0.3,-0.175 -0.15,0 -0.2375,0 -0.2875,0.1625 -0.3625,1.12499 -1.26249,1.49999 -1.77499,1.49999 -0.475,0 -0.68749,-0.225 -0.68749,-0.625 0,-0.25 0.16249,-0.92499 0.27499,-1.37499 0.075,-0.325 0.3625,-1.49999 0.4375,-1.69999 0.175,-0.75 0.6125,-1.13749 1.04999,-1.13749 0.0625,0 0.35,0 0.6,0.1875 z"
         id="path4027" />
      <path
         style="font-style:normal;font-variant:normal;font-weight:normal;font-stretch:normal;letter-spacing:normal;word-spacing:normal;text-anchor:start;fill:#000000;stroke:#000000;stroke-width:0;stroke-linecap:butt;stroke-linejoin:miter;stroke-miterlimit:10.43299961;stroke-opacity:1;stroke-dasharray:none;stroke-dashoffset:0"
         d="m 378.99218,443.65364 0.0375,0 0.05,0.0125 0.05,0 0.0375,0 0.05,0.0125 0.0375,0 0.0375,0.0125 0.0375,0 0.0375,0.0125 0.0375,0.0125 0.0375,0 0.025,0.0125 0.0375,0.0125 0.0375,0.0125 0.025,0.025 0.025,0.0125 0.025,0.0125 0.0375,0.0125 0.025,0.025 0.025,0.0125 0.0375,0.0375 0.05,0.0375 0.0375,0.0375 0.025,0.05 0.0375,0.05 0.025,0.0375 0.025,0.05 0.025,0.05 0.0125,0.05 0.025,0.05 0.0125,0.05 0.0125,0.05 0.0125,0.0625 0,0.05 0.0125,0.05 0,0.05 0.0125,0.05 0,0.05 0,0.05 0,0.05 0,0.0375 0,0.05 c 0,0.3625 0,1.24999 -1.04999,1.24999 -0.225,0 -0.775,-0.05 -1.14999,-0.2875 0.17499,-0.075 0.41249,-0.275 0.41249,-0.64999 0,-0.4 -0.3,-0.7 -0.71249,-0.7 -0.4375,0 -0.7125,0.3 -0.7125,0.7125 0,0.88749 0.9625,1.36249 2.19999,1.36249 1.82499,0 2.43748,-0.95 2.43748,-1.67499 0,-0.675 -0.53749,-1.28749 -1.52499,-1.48749 0.625,-0.2375 1.21249,-0.6875 1.21249,-1.42499 0,-0.675 -0.69999,-1.225 -2.09998,-1.225 -1.18749,0 -1.91249,0.575 -1.91249,1.3 0,0.43749 0.3125,0.67499 0.65,0.67499 0.43749,0 0.66249,-0.325 0.66249,-0.66249 0,-0.4375 -0.35,-0.6 -0.4375,-0.625 0.3625,-0.2625 0.825,-0.2875 1,-0.2875 0.84999,0 0.84999,0.5625 0.84999,0.8125 0,0.39999 -0.175,1.18749 -1.03749,1.23749 -0.225,0.0125 -0.45,0.025 -0.4875,0.0375 -0.125,0.0375 -0.125,0.1375 -0.125,0.1875 0,0.2 0.125,0.2 0.2875,0.2 z"
         id="path4029" />
    </g>
    <g
       id="g4117"
       transform="translate(135.1453,-104.92884)">
      <path
         style="font-style:normal;font-variant:normal;font-weight:normal;font-stretch:normal;letter-spacing:normal;word-spacing:normal;text-anchor:start;fill:#000000;stroke:#000000;stroke-width:0;stroke-linecap:butt;stroke-linejoin:miter;stroke-miterlimit:10.43299961;stroke-opacity:1;stroke-dasharray:none;stroke-dashoffset:0"
         d="m 375.5297,461.49102 -0.0375,0.0125 -0.05,0.025 -0.0375,0.0125 -0.0375,0.0125 -0.0375,0.025 -0.025,0.0125 -0.0375,0.025 -0.0375,0.025 -0.025,0.025 -0.025,0.025 -0.0375,0.025 -0.025,0.025 -0.025,0.025 -0.025,0.025 -0.025,0.0375 -0.0125,0.025 -0.025,0.0375 -0.025,0.025 -0.0125,0.0375 -0.0125,0.025 -0.025,0.0375 -0.0125,0.025 -0.0125,0.0375 -0.0125,0.025 0,0.0375 -0.0125,0.025 -0.0125,0.0375 0,0.025 0,0.0375 -0.0125,0.025 0,0.0375 0,0.025 c 0,0.27499 0.2125,0.57499 0.625,0.57499 0.4375,0 0.89999,-0.36249 0.89999,-0.96249 0,-0.675 -0.66249,-1.09999 -1.42499,-1.09999 -0.71249,0 -1.16249,0.53749 -1.32499,0.74999 -0.3125,-0.5125 -1.01249,-0.74999 -1.72499,-0.74999 -1.56249,0 -2.41248,1.52499 -2.41248,1.93748 0,0.175 0.1875,0.175 0.3,0.175 0.15,0 0.2375,0 0.2875,-0.1625 0.36249,-1.12499 1.24999,-1.51249 1.76248,-1.51249 0.475,0 0.7,0.225 0.7,0.625 0,0.2375 -0.175,0.92499 -0.2875,1.37499 -0.1125,0.4625 -0.3375,1.37499 -0.425,1.69999 -0.18749,0.76249 -0.63749,1.13749 -1.04999,1.13749 -0.075,0 -0.3625,0 -0.6125,-0.1875 0.45,-0.125 0.675,-0.54999 0.675,-0.86249 0,-0.275 -0.2,-0.5625 -0.6125,-0.5625 -0.43749,0 -0.89999,0.3625 -0.89999,0.9625 0,0.66249 0.6625,1.09999 1.42499,1.09999 0.7,0 1.16249,-0.5375 1.32499,-0.7625 0.3125,0.525 1.0125,0.7625 1.72499,0.7625 1.56249,0 2.41249,-1.53749 2.41249,-1.93749 0,-0.175 -0.1875,-0.175 -0.3,-0.175 -0.15,0 -0.2375,0 -0.2875,0.1625 -0.3625,1.12499 -1.26249,1.49999 -1.77499,1.49999 -0.475,0 -0.68749,-0.225 -0.68749,-0.62499 0,-0.25 0.16249,-0.925 0.27499,-1.37499 0.075,-0.325 0.3625,-1.5 0.4375,-1.69999 0.175,-0.75 0.6125,-1.1375 1.04999,-1.1375 0.0625,0 0.35,0 0.6,0.1875 z"
         id="path4031" />
      <path
         style="font-style:normal;font-variant:normal;font-weight:normal;font-stretch:normal;letter-spacing:normal;word-spacing:normal;text-anchor:start;fill:#000000;stroke:#000000;stroke-width:0;stroke-linecap:butt;stroke-linejoin:miter;stroke-miterlimit:10.43299961;stroke-opacity:1;stroke-dasharray:none;stroke-dashoffset:0"
         d="m 381.64216,467.65348 0,-0.49999 -0.96249,0 0,-3.62498 c 0,-0.2625 -0.0375,-0.3125 -0.3,-0.3125 l -0.125,0 c -0.175,0 -0.2375,0 -0.35,0.1375 l -3.19998,3.79998 0,0.49999 2.78748,0 0.1125,-0.49999 -2.29998,0 2.29998,-2.72499 0,2.72499 -0.1125,0.49999 0,0.85 -1.08749,0 0,0.48749 c 0.4375,-0.0375 1.21249,-0.0375 1.67499,-0.0375 0.1875,0 1.33749,0.0125 1.56249,0.0375 l 0,-0.48749 -0.96249,0 0,-0.85 z"
         id="path4033" />
    </g>
    <g
       id="g4113"
       transform="translate(87.38278,-86.278677)">
      <path
         style="font-style:normal;font-variant:normal;font-weight:normal;font-stretch:normal;letter-spacing:normal;word-spacing:normal;text-anchor:start;fill:#000000;stroke:#000000;stroke-width:0;stroke-linecap:butt;stroke-linejoin:miter;stroke-miterlimit:10.43299961;stroke-opacity:1;stroke-dasharray:none;stroke-dashoffset:0"
         d="m 369.50474,490.60334 0,0 0,0.0125 -0.0125,0 0,0.0125 0,0.0125 0,0 0,0.0125 0,0 -0.0125,0.0125 0,0 0,0.0125 0,0 0,0.0125 0,0 0,0 -0.0125,0.0125 0,0 0,0.0125 0,0 0,0 0,0.0125 0,0 0,0 -0.0125,0 0,0.0125 0,0.0125 0,0 0,0 0,0.0125 -0.0125,0 0,0 0,0.0125 0,0 0,0 0,0 0,0.0125 -0.0125,0 0,0 0,0 0,0 0,0 0,0.0125 c -0.075,0.0125 -0.2125,0.0125 -0.325,0.0125 -0.2125,0 -0.4375,0 -0.4375,0.35 0,0.1375 0.1,0.2375 0.2375,0.2375 0.3625,0 0.775,-0.0375 1.15,-0.0375 0.42499,0 0.89999,0.0375 1.32499,0.0375 0.0875,0 0.32499,0 0.32499,-0.3625 0,-0.2125 -0.19999,-0.225 -0.32499,-0.225 -0.175,0 -0.375,0 -0.5375,-0.0125 l 0.5375,-2.16248 c 0.1875,0.175 0.59999,0.45 1.26249,0.45 l -0.025,-0.45 c -0.7375,0 -1.03749,-0.5875 -1.03749,-0.725 l 0.025,-0.175 0.76249,-3.12498 c 0.3625,-0.42499 0.94999,-0.79999 1.53749,-0.79999 0.775,0 0.8375,0.66249 0.8375,0.93749 0,0.65 -0.4125,2.18749 -0.625,2.67499 -0.375,0.89999 -0.98749,1.21249 -1.49999,1.21249 l 0.025,0.45 c 2.16248,0 3.51248,-1.97499 3.51248,-3.67498 0,-1.53749 -1.15,-2.04999 -2.18749,-2.04999 -0.87499,0 -1.52499,0.4875 -1.72499,0.675 -0.475,-0.675 -1.29999,-0.675 -1.43749,-0.675 -0.45,0 -0.81249,0.2625 -1.07499,0.7125 -0.3125,0.48749 -0.475,1.16249 -0.475,1.22499 0,0.175 0.1875,0.175 0.3,0.175 0.1375,0 0.1875,0 0.25,-0.0625 0.025,-0.025 0.025,-0.05 0.1,-0.3625 0.24999,-0.99999 0.53749,-1.23749 0.84999,-1.23749 0.125,0 0.275,0.0375 0.275,0.45 0,0.19999 -0.025,0.36249 -0.075,0.53749 z"
         id="path4035" />
      <path
         style="font-style:normal;font-variant:normal;font-weight:normal;font-stretch:normal;letter-spacing:normal;word-spacing:normal;text-anchor:start;fill:#000000;stroke:#000000;stroke-width:0;stroke-linecap:butt;stroke-linejoin:miter;stroke-miterlimit:10.43299961;stroke-opacity:1;stroke-dasharray:none;stroke-dashoffset:0"
         d="m 378.49218,483.42838 0.2375,0 0.1125,0 0.1125,0 0.1125,-0.0125 0.1125,0 0.1125,-0.0125 0.1125,0 0.1,-0.0125 0.1,-0.0125 0.1,-0.0125 0.1,-0.0125 0.1,-0.025 0.0875,-0.0125 0.075,-0.025 0.05,-0.0125 0.0375,0 c 0.625,-0.1875 1.02499,-0.54999 1.02499,-1.08749 0,-0.55 -0.54999,-0.88749 -1.37499,-0.88749 l -0.0125,0.39999 c 0.4375,0 0.7375,0.2 0.7375,0.5 0,0.82499 -1.44999,0.82499 -2.34999,0.82499 l 0,0 c 0.0875,-0.29999 0.3875,-1.32499 1.61249,-1.32499 l 0.0125,-0.39999 c -1.79999,0 -2.91248,1.14999 -2.91248,2.39998 0,1.59999 1.72499,1.59999 2.16249,1.59999 0.48749,0 0.91249,0 1.37499,-0.125 0.5,-0.1375 0.94999,-0.475 0.94999,-0.6375 0,-0.0875 -0.2,-0.29999 -0.3,-0.29999 -0.0625,0 -0.1,0.0375 -0.16249,0.0875 -0.2125,0.19999 -0.6,0.57499 -1.89999,0.57499 -0.275,0 -1.0375,0 -1.0375,-0.83749 0,-0.1625 0.05,-0.425 0.1,-0.6375 z"
         id="path4037" />
    </g>
  </g>
</svg>
